<svg xmlns="http://www.w3.org/2000/svg" viewBox="0 0 154.52 155.67"><defs><style>.cls-1{fill:#4c60b0;}.cls-2,.cls-4{fill:#2e3a6a;}.cls-2,.cls-6{opacity:0.61;}.cls-3{fill:#414b6a;}.cls-5{fill:none;stroke:#fff;stroke-linecap:round;stroke-linejoin:round;}.cls-6{fill:#6580eb;}.cls-7{fill:#6b6318;opacity:0.24;}</style></defs><title>eos</title><g id="Layer_2" data-name="Layer 2"><g id="eos"><circle class="cls-1" cx="75.2" cy="80.47" r="75.19"/><circle class="cls-2" cx="75.2" cy="80.47" r="75.19"/><polygon class="cls-3" points="69.38 108.78 40.55 108.78 57.63 79.2 59.64 75.72 63.81 89.88 69.38 108.78"/><polygon class="cls-3" points="80.03 108.78 74.71 126.82 69.38 108.78 80.03 108.78"/><polygon class="cls-3" points="108.87 108.78 80.03 108.78 85.6 89.88 89.78 75.71 91.79 79.2 108.87 108.78"/><polygon class="cls-3" points="89.78 75.71 85.6 89.88 80.03 108.78 69.38 108.78 63.81 89.88 59.64 75.72 72.78 52.95 74.71 49.61 76.63 52.95 89.78 75.71"/><polygon class="cls-3" points="108.87 108.78 91.79 79.2 89.78 75.71 96.49 52.95 108.87 108.78"/><polygon class="cls-3" points="108.87 108.78 74.71 127.23 40.55 108.78 69.38 108.78 74.71 126.82 80.03 108.78 108.87 108.78"/><polygon class="cls-4" points="114.09 104.11 79.93 122.56 45.77 104.11 74.6 104.11 79.93 122.15 85.25 104.11 114.09 104.11"/><polygon class="cls-3" points="59.64 75.72 57.63 79.2 40.55 108.78 52.95 53.02 59.64 75.72"/><polygon class="cls-4" points="114.09 104.11 97.01 74.53 95 71.04 101.71 48.28 114.09 104.11"/><polygon class="cls-3" points="74.71 31.15 74.71 49.61 72.78 52.95 59.64 75.72 52.95 53.02 52.93 52.95 74.71 31.15"/><polygon class="cls-4" points="64.86 71.05 62.85 74.53 45.77 104.11 58.17 48.35 64.86 71.05"/><polygon class="cls-3" points="96.49 52.95 89.78 75.71 76.63 52.95 74.71 49.61 74.71 31.15 96.49 52.95"/><polygon class="cls-4" points="74.6 104.11 45.77 104.11 62.85 74.53 64.86 71.05 69.03 85.21 74.6 104.11"/><polygon class="cls-4" points="114.09 104.11 85.25 104.11 90.82 85.21 95 71.04 97.01 74.53 114.09 104.11"/><polygon class="cls-4" points="85.25 104.11 79.93 122.15 74.6 104.11 85.25 104.11"/><polygon class="cls-4" points="95 71.04 90.82 85.21 85.25 104.11 74.6 104.11 69.03 85.21 64.86 71.05 78 48.28 79.93 44.94 81.85 48.28 95 71.04"/><polygon class="cls-4" points="79.93 26.48 79.93 44.94 78 48.28 64.86 71.05 58.17 48.35 58.15 48.28 79.93 26.48"/><polygon class="cls-4" points="101.71 48.28 95 71.04 81.85 48.28 79.93 44.94 79.93 26.48 101.71 48.28"/><polygon class="cls-5" points="69.07 85.36 74.32 104.34 45.49 103.86 63.06 74.57 65.13 71.12 69.07 85.36"/><polygon class="cls-5" points="114.09 104.11 85.24 104.11 90.81 85.21 94.99 71.03 97.01 74.52 114.09 104.11"/><polygon class="cls-5" points="94.99 71.03 90.81 85.21 85.24 104.11 74.6 104.11 69.03 85.21 64.86 71.04 78 48.27 79.93 44.94 81.85 48.27 94.99 71.03"/><polygon class="cls-5" points="85.24 104.11 79.93 122.15 74.6 104.11 85.24 104.11"/><line class="cls-5" x1="114.09" y1="104.11" x2="101.71" y2="48.27"/><line class="cls-5" x1="58.17" y1="48.35" x2="45.49" y2="103.86"/><line class="cls-5" x1="114.09" y1="104.64" x2="79.92" y2="123.05"/><line class="cls-5" x1="45.76" y1="104.11" x2="79.92" y2="123.05"/><polygon class="cls-5" points="101.71 48.27 94.99 71.03 81.85 48.27 79.93 44.94 79.93 26.48 101.71 48.27"/><polygon class="cls-5" points="79.93 26.48 79.93 44.94 78 48.27 64.86 71.04 58.14 48.27 79.93 26.48"/><path class="cls-6" d="M123.68,138A75.23,75.23,0,0,1,38,145.85l107.9-91A75.23,75.23,0,0,1,123.68,138Z"/><path class="cls-6" d="M137.91,39,23.72,135.27a75.13,75.13,0,0,1-6-6.33L132.69,32A76.65,76.65,0,0,1,137.91,39Z"/><path d="M27,51.93l-1,3a25.19,25.19,0,0,0-.91,3l-.74,3c-.27,1-.33,2-.52,3.06a56.52,56.52,0,0,0-1.27,12.3l.15,3.1L22.78,81l.2,1.54.41,3.07c.2,1,.44,2,.65,3,.37,2,1.11,4,1.68,6,.31,1,.75,1.92,1.12,2.89a28.55,28.55,0,0,0,1.22,2.84,53.88,53.88,0,0,0,3,5.45c.56.87,1.05,1.79,1.66,2.62l1.84,2.5a23.48,23.48,0,0,0,2,2.39l2.05,2.32,2.25,2.14,1.12,1.07c.38.35.8.65,1.2,1a53.38,53.38,0,0,0,10.32,6.83,60.39,60.39,0,0,0,11.38,5.11,54.69,54.69,0,0,1-12.07-3.78,54.79,54.79,0,0,1-10.59-7c-.4-.33-.84-.64-1.23-1l-1.15-1.1-2.31-2.19-2.1-2.39a23.79,23.79,0,0,1-2-2.46l-1.89-2.56c-.63-.85-1.13-1.79-1.7-2.69a53.74,53.74,0,0,1-3-5.59A27.93,27.93,0,0,1,25.45,98c-.38-1-.83-2-1.15-3a62.49,62.49,0,0,1-1.72-6.12c-.22-1-.46-2.07-.67-3.11l-.42-3.16-.21-1.57L21.2,79.5l-.15-3.18a59.5,59.5,0,0,1,1.29-12.63A54.64,54.64,0,0,1,27,51.93Z"/><path d="M85.77,133.15l3.28-.63,1.63-.32c.54-.13,1.06-.31,1.6-.46l3.19-.91c1-.36,2.07-.78,3.1-1.17l1.54-.6c.51-.21,1-.48,1.49-.71l3-1.46c1-.54,1.89-1.13,2.83-1.69l1.41-.85c.46-.3.89-.64,1.34-1,.89-.64,1.8-1.24,2.71-1.86s1.71-1.38,2.56-2.07l1.27-1,1.18-1.15,2.37-2.29,2.16-2.48c.36-.42.73-.82,1.07-1.25l1-1.32c.64-.89,1.31-1.76,1.93-2.66l1.72-2.81c.28-.47.59-.93.85-1.41l.73-1.48c.48-1,1-1.95,1.46-2.95l1.21-3.05c.19-.52.43-1,.58-1.54l.47-1.58c.31-1,.65-2.09.92-3.16l.66-3.22c.1-.54.24-1.07.31-1.61l.18-1.64.35-3.27.07-3.29,0-1.64L135.8,73l-.24-3.28L135,66.45l-.27-1.62-.4-1.6-.81-3.18-1.08-3.11c-.18-.52-.34-1-.55-1.55l-.67-1.51c-.45-1-.87-2-1.35-3L128.33,48a27.72,27.72,0,0,0-1.73-2.8c-.62-.91-1.18-1.85-1.85-2.73a59.45,59.45,0,0,0-4.21-5c-.77-.79-1.46-1.64-2.28-2.37l-2.45-2.21a29.84,29.84,0,0,0-2.56-2.05l-1.31-1a12.53,12.53,0,0,0-1.35-.94l-2.78-1.76-.69-.44-.73-.38-1.47-.75-1.46-.76-.73-.37-.76-.31-3-1.25-.77-.31-.78-.24-1.57-.48c-1.06-.3-2.09-.7-3.16-.91a57.06,57.06,0,0,0-26.09-.15A58.1,58.1,0,0,0,42.64,31.63,57.33,57.33,0,0,1,66.22,19.29,58.52,58.52,0,0,1,93,19.44c1.11.22,2.16.63,3.25.94l1.61.49.81.25.78.32,3.13,1.27.78.32.75.39,1.5.77,1.5.78.75.39.72.45,2.85,1.81a11,11,0,0,1,1.38,1l1.35,1a31.53,31.53,0,0,1,2.63,2.11L119.3,34c.84.74,1.55,1.62,2.34,2.43A59.57,59.57,0,0,1,126,41.59c.68.89,1.26,1.86,1.9,2.79a29.09,29.09,0,0,1,1.77,2.87l1.62,3c.49,1,.93,2,1.39,3.08l.69,1.54c.2.52.37,1.06.56,1.59L135,59.61l.83,3.28.41,1.63.28,1.67.53,3.33.25,3.37.12,1.69,0,1.69-.07,3.38L137,83l-.19,1.67c-.07.56-.21,1.11-.32,1.66l-.67,3.31c-.28,1.09-.63,2.16-.94,3.25l-.49,1.61c-.16.54-.4,1-.6,1.58l-1.24,3.14c-.47,1-1,2-1.49,3l-.76,1.51c-.26.5-.58,1-.86,1.45l-1.77,2.88c-.64.92-1.32,1.82-2,2.73l-1,1.36c-.36.43-.74.85-1.11,1.28L121.32,116l-2.42,2.35-1.21,1.18-1.31,1.07-2.61,2.14c-.92.64-1.84,1.29-2.79,1.9-.47.31-.93.63-1.42.92l-1.49.79c-1,.52-2,1.07-3,1.57l-3.1,1.32c-.51.21-1,.45-1.55.64l-1.6.52c-1.06.34-2.12.7-3.19,1l-3.27.74c-.55.12-1.09.25-1.64.35l-1.66.21Z"/><path d="M143.49,113.73a78.16,78.16,0,0,0,7.09-20.68,74.29,74.29,0,0,0,1.78-21.64,76.71,76.71,0,0,0-1.45-10.78L150.28,58,150,56.65l-.39-1.3-.78-2.61-.93-2.56a72.36,72.36,0,0,0-10.48-19A74.34,74.34,0,0,0,102.57,6,73.54,73.54,0,0,0,81.24,2,76.76,76.76,0,0,0,59.41,3.34,73.16,73.16,0,0,1,81.32,0a75.39,75.39,0,0,1,21.9,4.14A76.41,76.41,0,0,1,139,30a74.55,74.55,0,0,1,10.77,19.51l.95,2.64.8,2.67.4,1.34.33,1.36.65,2.72a78,78,0,0,1,1.48,11.08,77.15,77.15,0,0,1-1.81,22.21c-.2.91-.53,1.79-.8,2.68s-.55,1.78-.88,2.65c-.68,1.73-1.28,3.49-2.09,5.16A68.75,68.75,0,0,1,143.49,113.73Z"/><path d="M48.46,145.06q3,.81,5.86,1.65l5.9,1.22,5.88,1.17,6,.68a77.71,77.71,0,0,0,23.84-2A76,76,0,0,0,118,138.71l5-3.35,4.67-3.75,4.67-3.82c1.43-1.42,2.88-2.82,4.37-4.23q-1.77,2.47-3.61,4.95l-4.11,4.6-4.8,3.86-5.11,3.44a78.62,78.62,0,0,1-22.69,9.36,80.12,80.12,0,0,1-24.45,2l-6.12-.7-6-1.19L54,147.75C52.11,146.87,50.28,146,48.46,145.06Z"/><path d="M4.21,88.2c.45,1.41.89,2.8,1.3,4.19L7,96.46l1.31,4.1,1.57,4a74.87,74.87,0,0,0,8.55,14.92,78.78,78.78,0,0,0,11.66,12.68l3.33,2.74,3.47,2.56,3.38,2.74q1.75,1.29,3.51,2.62c-1.35-.55-2.72-1.11-4.07-1.7l-4-2-3.57-2.62-3.41-2.81a81,81,0,0,1-12-13A77.13,77.13,0,0,1,8,105.36l-1.62-4.13L5.07,97c-.23-1.47-.44-2.94-.63-4.39S4.26,89.66,4.21,88.2Z"/><path d="M10.61,43.64c-.11.74-.25,1.45-.39,2.16l-.41,2.12c-.55,1.28-1,2.6-1.5,3.92A73.75,73.75,0,0,0,4.66,68.2c-.14,1.39-.25,2.79-.33,4.19-.36,1.38-.69,2.78-1.09,4.2-.19-.71-.36-1.42-.52-2.14l-.39-2.16c.08-1.44.2-2.87.34-4.3A76.47,76.47,0,0,1,6.42,51.18l.74-2,.78-2c.42-.61.84-1.21,1.27-1.8S10.13,44.2,10.61,43.64Z"/><path d="M48.58,7.08c-.84.6-1.68,1.19-2.52,1.76l-2.47,1.78L41,12.08l-2.55,1.58A74.77,74.77,0,0,0,28.9,21a76.36,76.36,0,0,0-8.25,8.71L18.81,32l-1.74,2.44-2,2.27c-.66.78-1.33,1.55-2,2.33.35-1,.72-1.94,1.11-2.9l1.29-2.82,1.79-2.51L19.1,28.4a78.56,78.56,0,0,1,8.46-8.94A77.05,77.05,0,0,1,37.33,12L40,10.36l2.68-1.52,2.95-1C46.58,7.57,47.58,7.31,48.58,7.08Z"/><path class="cls-7" d="M75.2,5.28a75.19,75.19,0,1,0,75.19,75.19A75.19,75.19,0,0,0,75.2,5.28Zm0,133.6a58.42,58.42,0,1,1,58.41-58.41A58.41,58.41,0,0,1,75.2,138.88Z"/></g></g></svg>