<svg xmlns="http://www.w3.org/2000/svg" viewBox="0 0 154.52 155.67"><defs><style>.clsBcash-1{fill:#5d9245;}.clsBcash-2{fill:#009245;opacity:0.61;}.clsBcash-3{fill:#165434;}.clsBcash-4{fill:#5e9245;}.clsBcash-5,.clsBcash-6{fill:#fff875;}.clsBcash-5{opacity:0.53;}.clsBcash-6{opacity:0.54;}.clsBcash-7{fill:#04120b;opacity:0.31;}</style></defs><title>bcash</title><g id="Layer_2" data-name="Layer 2"><g id="bcash"><circle class="clsBcash-1" cx="75.2" cy="80.47" r="75.19"/><circle class="clsBcash-2" cx="75.2" cy="80.47" r="75.19"/><path class="clsBcash-3" d="M86.22,78.5c9.7,1.62,17.58,6.27,17.58,16.07,0,6.87-3.84,12.33-9.8,15.57-5.26,2.93-9.66,3.93-16.74,3.93l.07,5H71.78l-.07-5H69.44l.06,5H64v-5H51.65v-2.83c8.59-.81,9.1-1.72,9.1-9.7V61c0-8.39-.91-9.1-9.1-9.81V48.38H64l-.08-5h5.49v5h2.3l0-5h5.56l.06,5h.81c7.58,0,12.33,1.32,15.57,3.54a13.23,13.23,0,0,1,6,11.32C99.66,72.74,91.88,77.09,86.22,78.5ZM74.59,77.29c11.12,0,15.67-4.45,15.67-12.74C90.26,57.48,85.91,52,76.21,52c-2.83,0-4.65.3-5.66,1-.81.61-1.11,1.72-1.11,4.95V77.29Zm-5.15,24c0,7.28,1.72,9.1,8.89,9.1,7.89,0,15.57-4.25,15.57-14.86,0-10.31-7.28-14.75-19.61-14.75H69.44Z"/><path class="clsBcash-4" d="M88.88,75.79c9.71,1.62,17.59,6.27,17.59,16.07,0,6.88-3.84,12.33-9.8,15.57-5.26,2.93-9.67,3.94-16.74,3.94l.06,5H74.45l-.07-5H72.11l.06,5H66.69v-5H54.32v-2.83c8.59-.81,9.09-1.72,9.09-9.7V58.31c0-8.39-.91-9.1-9.09-9.8V45.68H66.7l-.08-5h5.49v5h2.3l0-5h5.56l.06,5h.81c7.58,0,12.33,1.31,15.56,3.53a13.21,13.21,0,0,1,6,11.32C102.33,70,94.54,74.38,88.88,75.79ZM77.26,74.58c11.12,0,15.67-4.45,15.67-12.73,0-7.08-4.35-12.54-14.05-12.54-2.83,0-4.65.31-5.66,1-.81.61-1.11,1.72-1.11,5v19.3ZM72.11,98.64c0,7.27,1.71,9.09,8.89,9.09,7.88,0,15.56-4.24,15.56-14.85,0-10.31-7.27-14.76-19.6-14.76H72.11Z"/><path d="M106.43,93.13a16.25,16.25,0,0,0-1.21-6.64,13.41,13.41,0,0,0-4.07-5.2A19.85,19.85,0,0,0,95.34,78a34.76,34.76,0,0,0-6.54-1.71.51.51,0,0,1-.41-.58.52.52,0,0,1,.37-.4,18.55,18.55,0,0,0,10.56-6.67,13.47,13.47,0,0,0,2.32-5.81,9.08,9.08,0,0,0,.15-1.57,12.05,12.05,0,0,0,0-1.59,13,13,0,0,0-9.08-11.78A36.54,36.54,0,0,0,80,46.18a.5.5,0,0,1-.5-.5l-.06-5,.5.49H74.37l.5-.5,0,2.51c0,.84,0,1.67,0,2.51v0a.43.43,0,0,1-.45.41h0L72.11,46h0a.35.35,0,0,1-.34-.36l.18-5,.19.19-4.66-.19,4.66-.19a.18.18,0,0,1,.18.18h0l.18,5-.36-.37,2.3-.08-.45.45c0-.84-.08-1.67-.08-2.51V40.66a.51.51,0,0,1,.49-.51h5.57a.51.51,0,0,1,.5.5l.06,5-.5-.49A37.18,37.18,0,0,1,93.07,47a16.17,16.17,0,0,1,5.68,3.57,13.48,13.48,0,0,1,3.48,5.75,15.16,15.16,0,0,1,.57,3.34,13.45,13.45,0,0,1,0,1.68,11.66,11.66,0,0,1-.16,1.68,14.36,14.36,0,0,1-2.5,6.24,16.53,16.53,0,0,1-5,4.5A22.44,22.44,0,0,1,89,76.28l0-1a36.08,36.08,0,0,1,6.73,1.77,21.29,21.29,0,0,1,6.1,3.44,13.88,13.88,0,0,1,3.93,5.78A15.63,15.63,0,0,1,106.43,93.13Z"/><path d="M78.63,116.34,80,116l-.31.32a7.84,7.84,0,0,1-.21-1.24c0-.42,0-.83,0-1.25l0-2.49a.49.49,0,0,1,.49-.5h0a48.21,48.21,0,0,0,6.25-.37,26.07,26.07,0,0,0,3-.59c.26,0,.5-.15.75-.19l.8-.07,1.59-.2a13.94,13.94,0,0,1-1.39.85c-.24.12-.48.26-.73.38s-.52.13-.77.21a31.58,31.58,0,0,1-3.17.6,48.77,48.77,0,0,1-6.38.38l.5-.51,0,2.49c0,.41,0,.83,0,1.24a7.69,7.69,0,0,1-.18,1.25v.11a.25.25,0,0,1-.28.21h0C79.54,116.56,79.09,116.46,78.63,116.34Z"/><path d="M63.69,86.9l-.27.15v0c.18,2.32.28,4.64.42,7,0,.58.08,1.16.08,1.74l0,1.74c0,1.16,0,2.32,0,3.49a17.48,17.48,0,0,1-.36,3.56c-.08.3-.18.6-.28.9a4.74,4.74,0,0,1-.46.86,4.19,4.19,0,0,1-1.45,1.3,11.08,11.08,0,0,1-3.49,1c-1.16.19-2.32.3-3.49.42l.46-.5v2.83l-.5-.5H66.7a.5.5,0,0,1,.5.5h0v5l-.5-.5h5.48l-.5.51-.07-5a.51.51,0,0,1,.49-.52h0c.75,0,1.51,0,2.27.09h0a.4.4,0,0,1,.38.42l-.21,5-.14-.14,2.17.14-2.17.15a.14.14,0,0,1-.15-.13h0l-.34-5,.42.41c-.76,0-1.52.11-2.27.09l.5-.52.06,5a.5.5,0,0,1-.49.5H66.69a.5.5,0,0,1-.5-.5h0v-5l.5.5H54.32a.5.5,0,0,1-.5-.5v-2.83a.51.51,0,0,1,.45-.5c1.15-.11,2.3-.22,3.42-.41a10,10,0,0,0,3.16-.92,3.47,3.47,0,0,0,1.71-2.42,16.72,16.72,0,0,0,.33-3.36c0-1.14,0-2.3,0-3.46V95.73c0-.58.05-1.16.08-1.74.14-2.32.24-4.64.41-7a0,0,0,0,1,0,0Z"/><path d="M63.41,62.65c.21.58.36,1.15.51,1.73V74.72c-.15.58-.3,1.15-.5,1.73-.2-.58-.34-1.15-.5-1.73V64.38C63.06,63.8,63.21,63.23,63.41,62.65Z"/><path d="M66.65,42.79c.18,1,.3,1.92.44,2.88a.34.34,0,0,1-.28.39H66.7a7.4,7.4,0,0,1-1.55.11H54.32l.5-.5v2.83l-.46-.5c1,.09,2,.17,3,.31a15.21,15.21,0,0,1,3,.65,5.34,5.34,0,0,1,1.43.72,2.69,2.69,0,0,1,1,1.28,6.59,6.59,0,0,1,.49,3,7.14,7.14,0,0,0-1.17-2.59,7.06,7.06,0,0,0-.94-.88,4.5,4.5,0,0,0-1.18-.59,13.62,13.62,0,0,0-2.77-.6c-1-.13-1.92-.22-2.9-.31a.5.5,0,0,1-.45-.49V45.68a.5.5,0,0,1,.5-.5H65.15a6.77,6.77,0,0,1,1.55.1l-.4.4C66.41,44.72,66.5,43.76,66.65,42.79Z"/><path d="M87,72.77A19.26,19.26,0,0,1,79.72,75a27.15,27.15,0,0,1-3.82.13H72.11a.5.5,0,0,1-.5-.5V54.5A10.83,10.83,0,0,1,72.09,51a2.73,2.73,0,0,1,.56-.85,3,3,0,0,1,.83-.56,6.64,6.64,0,0,1,1.72-.52A24.05,24.05,0,0,1,82,49a14.37,14.37,0,0,1,6.43,2.38A10.13,10.13,0,0,1,91,53.83a8.78,8.78,0,0,1,1.55,3.1,15.39,15.39,0,0,1,.32,6.74,15.8,15.8,0,0,0-1.07-6.47,11.35,11.35,0,0,0-3.88-5,13.55,13.55,0,0,0-6-2.21,23.27,23.27,0,0,0-6.51,0,6.14,6.14,0,0,0-1.47.44,1.62,1.62,0,0,0-.9.9,10,10,0,0,0-.4,3.12V74.58l-.5-.5H75.9l3.76,0A20.22,20.22,0,0,0,87,72.77Z"/><path d="M72.11,93.65c-.16-2.59-.26-5.17-.38-7.76,0-1.3-.15-2.59-.13-3.89V78.12h0a.49.49,0,0,1,.49-.49h0c2.88,0,5.78-.09,8.71.17a24.53,24.53,0,0,1,8.55,2.11,14,14,0,0,1,3.71,2.5,12.83,12.83,0,0,1,2.63,3.65A18,18,0,0,1,97,94.8a16.78,16.78,0,0,1-1,4.35,13.88,13.88,0,0,1-1,2A13.32,13.32,0,0,1,93.71,103a12.51,12.51,0,0,1-3.44,2.87,15.1,15.1,0,0,1-4.12,1.69,18.77,18.77,0,0,1-4.4.63c-.74,0-1.47,0-2.2,0a16.78,16.78,0,0,1-2.21-.31,6.24,6.24,0,0,1-3.9-2.15,7.89,7.89,0,0,1-1.2-4.19,8,8,0,0,0,1.54,3.92,5.66,5.66,0,0,0,3.7,1.61,25,25,0,0,0,8.41-.48A14.14,14.14,0,0,0,89.77,105,11.81,11.81,0,0,0,93,102.37a12.66,12.66,0,0,0,1.21-1.69A13,13,0,0,0,95,98.79,16.14,16.14,0,0,0,96,94.71a17,17,0,0,0-1.18-8.24,11.91,11.91,0,0,0-2.41-3.35,13.31,13.31,0,0,0-3.45-2.32,23.63,23.63,0,0,0-8.21-2c-2.83-.25-5.73-.15-8.62-.17l.5-.5V82c0,1.3-.09,2.59-.14,3.89C72.36,88.48,72.26,91.06,72.11,93.65Z"/><path class="clsBcash-5" d="M123.68,138A75.23,75.23,0,0,1,38,145.85l107.9-91A75.23,75.23,0,0,1,123.68,138Z"/><path class="clsBcash-6" d="M137.91,39,23.72,135.27a75.13,75.13,0,0,1-6-6.33L132.69,32A76.65,76.65,0,0,1,137.91,39Z"/><path d="M27,51.93l-1,3a25.19,25.19,0,0,0-.91,3l-.74,3c-.27,1-.33,2-.52,3.06a56.52,56.52,0,0,0-1.27,12.3l.15,3.1L22.78,81l.2,1.54.41,3.07c.2,1,.44,2,.65,3,.37,2,1.11,4,1.68,6,.31,1,.75,1.92,1.12,2.89a28.55,28.55,0,0,0,1.22,2.84,53.88,53.88,0,0,0,3,5.45c.56.87,1.05,1.79,1.66,2.62l1.84,2.5a23.48,23.48,0,0,0,2,2.39l2.05,2.32,2.25,2.14,1.12,1.07c.38.35.8.65,1.2,1a53.38,53.38,0,0,0,10.32,6.83,60.39,60.39,0,0,0,11.38,5.11,54.69,54.69,0,0,1-12.07-3.78,54.79,54.79,0,0,1-10.59-7c-.4-.33-.84-.64-1.23-1l-1.15-1.1-2.31-2.19-2.1-2.39a23.79,23.79,0,0,1-2-2.46l-1.89-2.56c-.63-.85-1.13-1.79-1.7-2.69a53.74,53.74,0,0,1-3-5.59A27.93,27.93,0,0,1,25.45,98c-.38-1-.83-2-1.15-3a62.49,62.49,0,0,1-1.72-6.12c-.22-1-.46-2.07-.67-3.11l-.42-3.16-.21-1.57L21.2,79.5l-.15-3.18a59.5,59.5,0,0,1,1.29-12.63A54.64,54.64,0,0,1,27,51.93Z"/><path d="M85.77,133.15l3.28-.63,1.63-.32c.54-.13,1.06-.31,1.6-.46l3.19-.91c1-.36,2.07-.78,3.1-1.17l1.54-.6c.51-.21,1-.48,1.49-.71l3-1.46c1-.54,1.89-1.13,2.83-1.69l1.41-.85c.46-.3.89-.64,1.34-1,.89-.64,1.8-1.24,2.71-1.86s1.71-1.38,2.56-2.07l1.27-1,1.18-1.15,2.37-2.29,2.16-2.48c.36-.42.73-.82,1.07-1.25l1-1.32c.64-.89,1.31-1.76,1.93-2.66l1.72-2.81c.28-.47.59-.93.85-1.41l.73-1.48c.48-1,1-1.95,1.46-2.95l1.21-3.05c.19-.52.43-1,.58-1.54l.47-1.58c.31-1,.65-2.09.92-3.16l.66-3.22c.1-.54.24-1.07.31-1.61l.18-1.64.35-3.27.07-3.29,0-1.64L135.8,73l-.24-3.28L135,66.45l-.27-1.62-.4-1.6-.81-3.18-1.08-3.11c-.18-.52-.34-1-.55-1.55l-.67-1.51c-.45-1-.87-2-1.35-3L128.33,48a27.72,27.72,0,0,0-1.73-2.8c-.62-.91-1.18-1.85-1.85-2.73a59.45,59.45,0,0,0-4.21-5c-.77-.79-1.46-1.64-2.28-2.37l-2.45-2.21a29.84,29.84,0,0,0-2.56-2.05l-1.31-1a12.53,12.53,0,0,0-1.35-.94l-2.78-1.76-.69-.44-.73-.38-1.47-.75-1.46-.76-.73-.37-.76-.31-3-1.25-.77-.31-.78-.24-1.57-.48c-1.06-.3-2.09-.7-3.16-.91a57.06,57.06,0,0,0-26.09-.15A58.1,58.1,0,0,0,42.64,31.63,57.33,57.33,0,0,1,66.22,19.29,58.52,58.52,0,0,1,93,19.44c1.11.22,2.16.63,3.25.94l1.61.49.81.25.78.32,3.13,1.27.78.32.75.39,1.5.77,1.5.78.75.39.72.45,2.85,1.81a11,11,0,0,1,1.38,1l1.35,1a31.53,31.53,0,0,1,2.63,2.11L119.3,34c.84.74,1.55,1.62,2.34,2.43A59.57,59.57,0,0,1,126,41.59c.68.89,1.26,1.86,1.9,2.79a29.09,29.09,0,0,1,1.77,2.87l1.62,3c.49,1,.93,2,1.39,3.08l.69,1.54c.2.52.37,1.06.56,1.59L135,59.61l.83,3.28.41,1.63.28,1.67.53,3.33.25,3.37.12,1.69,0,1.69-.07,3.38L137,83l-.19,1.67c-.07.56-.21,1.11-.32,1.66l-.67,3.31c-.28,1.09-.63,2.16-.94,3.25l-.49,1.61c-.16.54-.4,1-.6,1.58l-1.24,3.14c-.47,1-1,2-1.49,3l-.76,1.51c-.26.5-.58,1-.86,1.45l-1.77,2.88c-.64.92-1.32,1.82-2,2.73l-1,1.36c-.36.43-.74.85-1.11,1.28L121.32,116l-2.42,2.35-1.21,1.18-1.31,1.07-2.61,2.14c-.92.64-1.84,1.29-2.79,1.9-.47.31-.93.63-1.42.92l-1.49.79c-1,.52-2,1.07-3,1.57l-3.1,1.32c-.51.21-1,.45-1.55.64l-1.6.52c-1.06.34-2.12.7-3.19,1l-3.27.74c-.55.12-1.09.25-1.64.35l-1.66.21Z"/><path d="M143.49,113.73a78.16,78.16,0,0,0,7.09-20.68,74.29,74.29,0,0,0,1.78-21.64,76.71,76.71,0,0,0-1.45-10.78L150.28,58,150,56.65l-.39-1.3-.78-2.61-.93-2.56a72.36,72.36,0,0,0-10.48-19A74.34,74.34,0,0,0,102.57,6,73.54,73.54,0,0,0,81.24,2,76.76,76.76,0,0,0,59.41,3.34,73.16,73.16,0,0,1,81.32,0a75.39,75.39,0,0,1,21.9,4.14A76.41,76.41,0,0,1,139,30a74.55,74.55,0,0,1,10.77,19.51l.95,2.64.8,2.67.4,1.34.33,1.36.65,2.72a78,78,0,0,1,1.48,11.08,77.15,77.15,0,0,1-1.81,22.21c-.2.91-.53,1.79-.8,2.68s-.55,1.78-.88,2.65c-.68,1.73-1.28,3.49-2.09,5.16A68.75,68.75,0,0,1,143.49,113.73Z"/><path d="M48.46,145.06q3,.81,5.86,1.65l5.9,1.22,5.88,1.17,6,.68a77.71,77.71,0,0,0,23.84-2A76,76,0,0,0,118,138.71l5-3.35,4.67-3.75,4.67-3.82c1.43-1.42,2.88-2.82,4.37-4.23q-1.77,2.47-3.61,4.95l-4.11,4.6-4.8,3.86-5.11,3.44a78.62,78.62,0,0,1-22.69,9.36,80.12,80.12,0,0,1-24.45,2l-6.12-.7-6-1.19L54,147.75C52.11,146.87,50.28,146,48.46,145.06Z"/><path d="M4.21,88.2c.45,1.41.89,2.8,1.3,4.19L7,96.46l1.31,4.1,1.57,4a74.87,74.87,0,0,0,8.55,14.92,78.78,78.78,0,0,0,11.66,12.68l3.33,2.74,3.47,2.56,3.38,2.74q1.75,1.29,3.51,2.62c-1.35-.55-2.72-1.11-4.07-1.7l-4-2-3.57-2.62-3.41-2.81a81,81,0,0,1-12-13A77.13,77.13,0,0,1,8,105.36l-1.62-4.13L5.07,97c-.23-1.47-.44-2.94-.63-4.39S4.26,89.66,4.21,88.2Z"/><path d="M10.61,43.64c-.11.74-.25,1.45-.39,2.16l-.41,2.12c-.55,1.28-1,2.6-1.5,3.92A73.75,73.75,0,0,0,4.66,68.2c-.14,1.39-.25,2.79-.33,4.19-.36,1.38-.69,2.78-1.09,4.2-.19-.71-.36-1.42-.52-2.14l-.39-2.16c.08-1.44.2-2.87.34-4.3A76.47,76.47,0,0,1,6.42,51.18l.74-2,.78-2c.42-.61.84-1.21,1.27-1.8S10.13,44.2,10.61,43.64Z"/><path d="M48.58,7.08c-.84.6-1.68,1.19-2.52,1.76l-2.47,1.78L41,12.08l-2.55,1.58A74.77,74.77,0,0,0,28.9,21a76.36,76.36,0,0,0-8.25,8.71L18.81,32l-1.74,2.44-2,2.27c-.66.78-1.33,1.55-2,2.33.35-1,.72-1.94,1.11-2.9l1.29-2.82,1.79-2.51L19.1,28.4a78.56,78.56,0,0,1,8.46-8.94A77.05,77.05,0,0,1,37.33,12L40,10.36l2.68-1.52,2.95-1C46.58,7.57,47.58,7.31,48.58,7.08Z"/><path class="clsBcash-7" d="M75.2,5.28a75.19,75.19,0,1,0,75.19,75.19A75.19,75.19,0,0,0,75.2,5.28Zm0,133.6a58.42,58.42,0,1,1,58.41-58.41A58.41,58.41,0,0,1,75.2,138.88Z"/></g></g></svg>