<svg xmlns="http://www.w3.org/2000/svg" viewBox="0 0 154.52 155.67"><defs><style>.clsBitcoin-1{fill:#ffc;}.clsBitcoin-2{fill:#f2e068;}.clsBitcoin-2,.clsBitcoin-6{opacity:0.61;}.clsBitcoin-3{fill:#6b6318;opacity:0.24;}.clsBitcoin-4{fill:#8a7e32;}.clsBitcoin-5{fill:#d8c64e;}.clsBitcoin-6{fill:#fffa9f;}</style></defs><title>bitcoin</title><g id="Layer_2" data-name="Layer 2"><g id="Layer_1-2" data-name="Layer 1"><circle class="clsBitcoin-1" cx="75.2" cy="80.47" r="75.19"/><circle class="clsBitcoin-2" cx="75.2" cy="80.47" r="75.19"/><path class="clsBitcoin-3" d="M75.2,5.28a75.19,75.19,0,1,0,75.19,75.19A75.19,75.19,0,0,0,75.2,5.28Zm0,133.6a58.42,58.42,0,1,1,58.41-58.41A58.41,58.41,0,0,1,75.2,138.88Z"/><path class="clsBitcoin-4" d="M89.27,75.24c9.7,1.62,17.59,6.27,17.59,16.07,0,6.87-3.85,12.33-9.81,15.57-5.25,2.93-9.66,3.93-16.74,3.93l.07,5H74.83l-.06-5H72.49l.07,5H67.08v-5H54.7V108c8.59-.81,9.1-1.72,9.1-9.7V57.76c0-8.39-.91-9.1-9.1-9.81V45.12H67.08l-.08-5h5.49v5h2.3l0-5h5.56l.06,5h.81c7.58,0,12.33,1.32,15.57,3.54a13.2,13.2,0,0,1,6,11.32C102.71,69.48,94.93,73.83,89.27,75.24ZM77.65,74c11.11,0,15.66-4.45,15.66-12.74,0-7.07-4.34-12.53-14-12.53-2.83,0-4.65.3-5.66,1-.8.61-1.11,1.72-1.11,4.95V74Zm-5.16,24c0,7.28,1.72,9.1,8.9,9.1,7.88,0,15.56-4.25,15.56-14.86C97,82,89.67,77.57,77.34,77.57H72.49Z"/><path class="clsBitcoin-5" d="M91.94,72.53c9.7,1.62,17.58,6.27,17.58,16.07,0,6.88-3.84,12.33-9.8,15.57-5.26,2.93-9.66,3.94-16.74,3.94l.06,5H77.5l-.07-5H75.16l.06,5H69.74v-5H57.37v-2.83c8.59-.81,9.1-1.72,9.1-9.7V55.05c0-8.39-.91-9.1-9.1-9.8V42.42H69.75l-.08-5h5.49v5h2.3l0-5H83l.06,5h.81c7.58,0,12.33,1.31,15.57,3.53a13.23,13.23,0,0,1,6,11.32C105.38,66.77,97.6,71.12,91.94,72.53ZM80.31,71.32C91.43,71.32,96,66.87,96,58.59c0-7.08-4.35-12.54-14-12.54-2.83,0-4.65.31-5.66,1-.81.6-1.11,1.71-1.11,5v19.3ZM75.16,95.38c0,7.27,1.72,9.09,8.89,9.09,7.89,0,15.57-4.24,15.57-14.85,0-10.31-7.28-14.76-19.61-14.76H75.16Z"/><path d="M109.48,89.87a16.09,16.09,0,0,0-1.21-6.64A13.41,13.41,0,0,0,104.2,78a19.72,19.72,0,0,0-5.81-3.29A34.56,34.56,0,0,0,91.85,73a.5.5,0,0,1,0-1,18.55,18.55,0,0,0,10.55-6.67,13.34,13.34,0,0,0,2.32-5.81,9.08,9.08,0,0,0,.15-1.57,12.05,12.05,0,0,0,0-1.59,13,13,0,0,0-9.08-11.78c-4-1.47-8.4-1.73-12.73-1.71a.51.51,0,0,1-.5-.5l-.06-5,.5.49H77.42l.5-.5,0,2.51c0,.84,0,1.67,0,2.51v0a.43.43,0,0,1-.45.41h0l-2.3-.08h0a.36.36,0,0,1-.34-.36l.18-5,.19.19-4.66-.19,4.66-.18a.18.18,0,0,1,.19.17h0l.18,5-.37-.37,2.3-.08-.45.45c0-.84-.07-1.67-.08-2.51V37.4a.51.51,0,0,1,.5-.51H83a.51.51,0,0,1,.5.5l.06,5-.5-.49A37.15,37.15,0,0,1,96.12,43.7a16.17,16.17,0,0,1,5.68,3.57A13.48,13.48,0,0,1,105.28,53a14.6,14.6,0,0,1,.57,3.34,13.45,13.45,0,0,1,0,1.68,10.39,10.39,0,0,1-.16,1.68,14.23,14.23,0,0,1-2.5,6.24,16.41,16.41,0,0,1-5,4.5A22.44,22.44,0,0,1,92.06,73l0-1a35.88,35.88,0,0,1,6.73,1.77,21.16,21.16,0,0,1,6.1,3.44A13.88,13.88,0,0,1,108.78,83,15.48,15.48,0,0,1,109.48,89.87Z"/><path d="M81.69,113.08l1.35-.31-.31.32a9.18,9.18,0,0,1-.21-1.24c0-.42,0-.83,0-1.25l0-2.49a.5.5,0,0,1,.49-.5h0a48.11,48.11,0,0,0,6.25-.37,28.94,28.94,0,0,0,3.06-.58c.25,0,.49-.16.75-.2l.79-.07,1.6-.2A15.35,15.35,0,0,1,94,107l-.72.38c-.26.09-.52.13-.78.21a31.39,31.39,0,0,1-3.16.6,48.92,48.92,0,0,1-6.39.38l.5-.51,0,2.49c0,.41,0,.83,0,1.24a9,9,0,0,1-.18,1.25l0,.11a.25.25,0,0,1-.28.21h0C82.59,113.3,82.14,113.2,81.69,113.08Z"/><path d="M66.74,83.64l-.27.15,0,0c.17,2.32.27,4.64.41,7,0,.58.08,1.16.08,1.74v1.74c0,1.16,0,2.32,0,3.49a18.2,18.2,0,0,1-.35,3.56c-.09.3-.18.6-.29.9a4.74,4.74,0,0,1-.46.86,4.19,4.19,0,0,1-1.45,1.3,11,11,0,0,1-3.48,1c-1.17.19-2.33.3-3.49.42l.45-.5v2.83l-.5-.5H69.75a.51.51,0,0,1,.5.5h0v5l-.5-.51h5.48l-.5.51-.07-5a.52.52,0,0,1,.49-.52h0c.76,0,1.52.05,2.27.09h0a.4.4,0,0,1,.38.42l-.22,5-.14-.14,2.17.14-2.17.15a.13.13,0,0,1-.14-.13h0l-.34-5,.42.41c-.75,0-1.51.11-2.27.09l.51-.52,0,5a.49.49,0,0,1-.49.5H69.74a.5.5,0,0,1-.5-.5h0v-5l.5.5H57.37a.5.5,0,0,1-.5-.5v-2.83a.51.51,0,0,1,.45-.5c1.15-.11,2.3-.22,3.42-.41a9.93,9.93,0,0,0,3.16-.92A3.47,3.47,0,0,0,65.61,101a16.72,16.72,0,0,0,.33-3.36c0-1.14,0-2.3,0-3.46l0-1.74c0-.58,0-1.16.08-1.74.14-2.32.24-4.64.42-7,0,0,0,0,0,0Z"/><path d="M66.47,59.39c.21.58.35,1.15.5,1.73V71.46c-.16.58-.3,1.15-.5,1.73-.2-.58-.35-1.15-.5-1.73V61.12C66.11,60.54,66.26,60,66.47,59.39Z"/><path d="M69.7,39.53c.18,1,.3,1.92.45,2.88a.36.36,0,0,1-.29.39h-.11a6.75,6.75,0,0,1-1.55.11H57.37l.5-.5v2.83l-.46-.5c1,.09,2,.17,3,.31a15.06,15.06,0,0,1,3,.65,5.2,5.2,0,0,1,1.43.72,2.69,2.69,0,0,1,1,1.28,6.59,6.59,0,0,1,.49,3,7.14,7.14,0,0,0-1.17-2.59,8.52,8.52,0,0,0-.93-.88A4.72,4.72,0,0,0,63,46.65a13.67,13.67,0,0,0-2.76-.6c-1-.13-1.93-.22-2.9-.31a.5.5,0,0,1-.46-.49V42.42a.5.5,0,0,1,.5-.5H68.2a6.74,6.74,0,0,1,1.55.1l-.4.4C69.46,41.46,69.56,40.5,69.7,39.53Z"/><path d="M90.08,69.51a19.26,19.26,0,0,1-7.3,2.18,27.35,27.35,0,0,1-3.83.13H75.16a.5.5,0,0,1-.5-.5V51.24a10.46,10.46,0,0,1,.47-3.48,2.66,2.66,0,0,1,.56-.86,3.19,3.19,0,0,1,.83-.56,7.05,7.05,0,0,1,1.72-.52,24.05,24.05,0,0,1,6.83,0,14.45,14.45,0,0,1,6.44,2.38A10.48,10.48,0,0,1,94,50.57a8.93,8.93,0,0,1,1.54,3.1,15.39,15.39,0,0,1,.32,6.74,16,16,0,0,0-1.06-6.47,11.44,11.44,0,0,0-3.89-5,13.5,13.5,0,0,0-6-2.21,23.2,23.2,0,0,0-6.5,0,6.36,6.36,0,0,0-1.48.44,1.58,1.58,0,0,0-.89.9,9.4,9.4,0,0,0-.4,3.12V71.32l-.5-.5H79l3.76,0A20.22,20.22,0,0,0,90.08,69.51Z"/><path d="M75.16,90.39c-.15-2.59-.26-5.17-.38-7.76,0-1.3-.15-2.59-.13-3.89V74.86h0a.49.49,0,0,1,.5-.49h0c2.89,0,5.78-.09,8.71.17a24.53,24.53,0,0,1,8.55,2.11,13.84,13.84,0,0,1,3.71,2.5,12.83,12.83,0,0,1,2.63,3.65A18,18,0,0,1,100,91.54a17.08,17.08,0,0,1-1,4.35,14.56,14.56,0,0,1-1,2,13,13,0,0,1-1.31,1.83,12.62,12.62,0,0,1-3.43,2.87,15.3,15.3,0,0,1-4.13,1.69,18.68,18.68,0,0,1-4.39.63c-.75,0-1.47,0-2.21,0a16.4,16.4,0,0,1-2.2-.31,6.21,6.21,0,0,1-3.9-2.15,7.71,7.71,0,0,1-1.2-4.19,8,8,0,0,0,1.53,3.92,5.71,5.71,0,0,0,3.7,1.61,25,25,0,0,0,8.42-.48,14.08,14.08,0,0,0,3.87-1.58A11.81,11.81,0,0,0,96,99.11a12.66,12.66,0,0,0,1.21-1.69,13,13,0,0,0,.88-1.89A15.72,15.72,0,0,0,99,91.45a17,17,0,0,0-1.18-8.24,11.72,11.72,0,0,0-2.41-3.35A13.14,13.14,0,0,0,92,77.54a23.63,23.63,0,0,0-8.2-2c-2.84-.25-5.74-.15-8.63-.17l.5-.5v3.88c0,1.3-.09,2.59-.13,3.89C75.42,85.22,75.31,87.8,75.16,90.39Z"/><path class="clsBitcoin-6" d="M123.68,138A75.23,75.23,0,0,1,38,145.85l107.9-91A75.23,75.23,0,0,1,123.68,138Z"/><path class="clsBitcoin-6" d="M137.91,39,23.72,135.27a75.13,75.13,0,0,1-6-6.33L132.69,32A76.65,76.65,0,0,1,137.91,39Z"/><path d="M27,51.93l-1,3a25.19,25.19,0,0,0-.91,3l-.74,3c-.27,1-.33,2-.52,3.06a56.52,56.52,0,0,0-1.27,12.3l.15,3.1L22.78,81l.2,1.54.41,3.07c.2,1,.44,2,.65,3,.37,2,1.11,4,1.68,6,.31,1,.75,1.92,1.12,2.89a28.55,28.55,0,0,0,1.22,2.84,53.88,53.88,0,0,0,3,5.45c.56.87,1.05,1.79,1.66,2.62l1.84,2.5a23.48,23.48,0,0,0,2,2.39l2.05,2.32,2.25,2.14,1.12,1.07c.38.35.8.65,1.2,1a53.38,53.38,0,0,0,10.32,6.83,60.39,60.39,0,0,0,11.38,5.11,54.69,54.69,0,0,1-12.07-3.78,54.79,54.79,0,0,1-10.59-7c-.4-.33-.84-.64-1.23-1l-1.15-1.1-2.31-2.19-2.1-2.39a23.79,23.79,0,0,1-2-2.46l-1.89-2.56c-.63-.85-1.13-1.79-1.7-2.69a53.74,53.74,0,0,1-3-5.59A27.93,27.93,0,0,1,25.45,98c-.38-1-.83-2-1.15-3a62.49,62.49,0,0,1-1.72-6.12c-.22-1-.46-2.07-.67-3.11l-.42-3.16-.21-1.57L21.2,79.5l-.15-3.18a59.5,59.5,0,0,1,1.29-12.63A54.64,54.64,0,0,1,27,51.93Z"/><path d="M85.77,133.15l3.28-.63,1.63-.32c.54-.13,1.06-.31,1.6-.46l3.19-.91c1-.36,2.07-.78,3.1-1.17l1.54-.6c.51-.21,1-.48,1.49-.71l3-1.46c1-.54,1.89-1.13,2.83-1.69l1.41-.85c.46-.3.89-.64,1.34-1,.89-.64,1.8-1.24,2.71-1.86s1.71-1.38,2.56-2.07l1.27-1,1.18-1.15,2.37-2.29,2.16-2.48c.36-.42.73-.82,1.07-1.25l1-1.32c.64-.89,1.31-1.76,1.93-2.66l1.72-2.81c.28-.47.59-.93.85-1.41l.73-1.48c.48-1,1-1.95,1.46-2.95l1.21-3.05c.19-.52.43-1,.58-1.54l.47-1.58c.31-1,.65-2.09.92-3.16l.66-3.22c.1-.54.24-1.07.31-1.61l.18-1.64.35-3.27.07-3.29,0-1.64L135.8,73l-.24-3.28L135,66.45l-.27-1.62-.4-1.6-.81-3.18-1.08-3.11c-.18-.52-.34-1-.55-1.55l-.67-1.51c-.45-1-.87-2-1.35-3L128.33,48a27.72,27.72,0,0,0-1.73-2.8c-.62-.91-1.18-1.85-1.85-2.73a59.45,59.45,0,0,0-4.21-5c-.77-.79-1.46-1.64-2.28-2.37l-2.45-2.21a29.84,29.84,0,0,0-2.56-2.05l-1.31-1a12.53,12.53,0,0,0-1.35-.94l-2.78-1.76-.69-.44-.73-.38-1.47-.75-1.46-.76-.73-.37-.76-.31-3-1.25-.77-.31-.78-.24-1.57-.48c-1.06-.3-2.09-.7-3.16-.91a57.06,57.06,0,0,0-26.09-.15A58.1,58.1,0,0,0,42.64,31.63,57.33,57.33,0,0,1,66.22,19.29,58.52,58.52,0,0,1,93,19.44c1.11.22,2.16.63,3.25.94l1.61.49.81.25.78.32,3.13,1.27.78.32.75.39,1.5.77,1.5.78.75.39.72.45,2.85,1.81a11,11,0,0,1,1.38,1l1.35,1a31.53,31.53,0,0,1,2.63,2.11L119.3,34c.84.74,1.55,1.62,2.34,2.43A59.57,59.57,0,0,1,126,41.59c.68.89,1.26,1.86,1.9,2.79a29.09,29.09,0,0,1,1.77,2.87l1.62,3c.49,1,.93,2,1.39,3.08l.69,1.54c.2.52.37,1.06.56,1.59L135,59.61l.83,3.28.41,1.63.28,1.67.53,3.33.25,3.37.12,1.69,0,1.69-.07,3.38L137,83l-.19,1.67c-.07.56-.21,1.11-.32,1.66l-.67,3.31c-.28,1.09-.63,2.16-.94,3.25l-.49,1.61c-.16.54-.4,1-.6,1.58l-1.24,3.14c-.47,1-1,2-1.49,3l-.76,1.51c-.26.5-.58,1-.86,1.45l-1.77,2.88c-.64.92-1.32,1.82-2,2.73l-1,1.36c-.36.43-.74.85-1.11,1.28L121.32,116l-2.42,2.35-1.21,1.18-1.31,1.07-2.61,2.14c-.92.64-1.84,1.29-2.79,1.9-.47.31-.93.63-1.42.92l-1.49.79c-1,.52-2,1.07-3,1.57l-3.1,1.32c-.51.21-1,.45-1.55.64l-1.6.52c-1.06.34-2.12.7-3.19,1l-3.27.74c-.55.12-1.09.25-1.64.35l-1.66.21Z"/><path d="M143.49,113.73a78.16,78.16,0,0,0,7.09-20.68,74.29,74.29,0,0,0,1.78-21.64,76.71,76.71,0,0,0-1.45-10.78L150.28,58,150,56.65l-.39-1.3-.78-2.61-.93-2.56a72.36,72.36,0,0,0-10.48-19A74.34,74.34,0,0,0,102.57,6,73.54,73.54,0,0,0,81.24,2,76.76,76.76,0,0,0,59.41,3.34,73.16,73.16,0,0,1,81.32,0a75.39,75.39,0,0,1,21.9,4.14A76.41,76.41,0,0,1,139,30a74.55,74.55,0,0,1,10.77,19.51l.95,2.64.8,2.67.4,1.34.33,1.36.65,2.72a78,78,0,0,1,1.48,11.08,77.15,77.15,0,0,1-1.81,22.21c-.2.91-.53,1.79-.8,2.68s-.55,1.78-.88,2.65c-.68,1.73-1.28,3.49-2.09,5.16A68.75,68.75,0,0,1,143.49,113.73Z"/><path d="M48.46,145.06q3,.81,5.86,1.65l5.9,1.22,5.88,1.17,6,.68a77.71,77.71,0,0,0,23.84-2A76,76,0,0,0,118,138.71l5-3.35,4.67-3.75,4.67-3.82c1.43-1.42,2.88-2.82,4.37-4.23q-1.77,2.47-3.61,4.95l-4.11,4.6-4.8,3.86-5.11,3.44a78.62,78.62,0,0,1-22.69,9.36,80.12,80.12,0,0,1-24.45,2l-6.12-.7-6-1.19L54,147.75C52.11,146.87,50.28,146,48.46,145.06Z"/><path d="M4.21,88.2c.45,1.41.89,2.8,1.3,4.19L7,96.46l1.31,4.1,1.57,4a74.87,74.87,0,0,0,8.55,14.92,78.78,78.78,0,0,0,11.66,12.68l3.33,2.74,3.47,2.56,3.38,2.74q1.75,1.29,3.51,2.62c-1.35-.55-2.72-1.11-4.07-1.7l-4-2-3.57-2.62-3.41-2.81a81,81,0,0,1-12-13A77.13,77.13,0,0,1,8,105.36l-1.62-4.13L5.07,97c-.23-1.47-.44-2.94-.63-4.39S4.26,89.66,4.21,88.2Z"/><path d="M10.61,43.64c-.11.74-.25,1.45-.39,2.16l-.41,2.12c-.55,1.28-1,2.6-1.5,3.92A73.75,73.75,0,0,0,4.66,68.2c-.14,1.39-.25,2.79-.33,4.19-.36,1.38-.69,2.78-1.09,4.2-.19-.71-.36-1.42-.52-2.14l-.39-2.16c.08-1.44.2-2.87.34-4.3A76.47,76.47,0,0,1,6.42,51.18l.74-2,.78-2c.42-.61.84-1.21,1.27-1.8S10.13,44.2,10.61,43.64Z"/><path d="M48.58,7.08c-.84.6-1.68,1.19-2.52,1.76l-2.47,1.78L41,12.08l-2.55,1.58A74.77,74.77,0,0,0,28.9,21a76.36,76.36,0,0,0-8.25,8.71L18.81,32l-1.74,2.44-2,2.27c-.66.78-1.33,1.55-2,2.33.35-1,.72-1.94,1.11-2.9l1.29-2.82,1.79-2.51L19.1,28.4a78.56,78.56,0,0,1,8.46-8.94A77.05,77.05,0,0,1,37.33,12L40,10.36l2.68-1.52,2.95-1C46.58,7.57,47.58,7.31,48.58,7.08Z"/></g></g></svg>