<svg xmlns="http://www.w3.org/2000/svg" viewBox="0 0 154.52 155.67"><defs><style>.clsEth-1{fill:#b3b3b3;}.clsEth-2{fill:#999;}.clsEth-2,.clsEth-7,.clsEth-8{opacity:0.61;}.clsEth-3{fill:#666;}.clsEth-4,.clsEth-6{fill:none;}.clsEth-5{fill:#333;}.clsEth-6{stroke:#000;stroke-linecap:round;stroke-miterlimit:10;}.clsEth-7{fill:#e6e6e6;}.clsEth-8{fill:#f2f2f2;}.clsEth-9{opacity:0.56;}</style></defs><title>ethereum</title><g id="Layer_2" data-name="Layer 2"><g id="ethereum"><circle class="clsEth-1" cx="75.2" cy="80.47" r="75.19"/><circle class="clsEth-2" cx="75.2" cy="80.47" r="75.19"/><path class="clsEth-3" d="M72.85,30.22l-26.71,48-.29-.07,13.5-24Z"/><polygon class="clsEth-3" points="99.85 78.31 72.93 92.84 72.85 92.8 46 78.31 46.14 78.23 72.85 66.57 72.93 66.54 99.66 78.2 99.85 78.31"/><path class="clsEth-3" d="M99.85,78.16l-.19,0-26.81-48,13.5,24Z"/><path class="clsEth-3" d="M46.19,83.6c1,.52,5.64,3.14,10.8,6Z"/><path class="clsEth-3" d="M62,92.45l10.8,6C71.83,98,67.17,95.35,62,92.45Z"/><path class="clsEth-3" d="M73.18,98.49l6.65-3.71C76.49,96.65,73.88,98.11,73.18,98.49Z"/><path class="clsEth-3" d="M92,88c3.87-2.18,7-3.93,7.79-4.35Z"/><polygon class="clsEth-3" points="99.66 78.2 72.93 66.54 72.85 66.57 72.85 30.22 99.66 78.2"/><polygon class="clsEth-3" points="72.85 30.22 72.85 66.57 46.14 78.23 72.85 30.22"/><polyline class="clsEth-4" points="72.85 92.84 72.85 92.8 72.85 66.57"/><path class="clsEth-3" d="M73,98.59,72.85,124,46,83.5h0l.16.09,10.8,6,3.14,1.76.63.35.62.35.63.35c5.16,2.9,9.82,5.52,10.8,6l.16.09Z"/><path class="clsEth-3" d="M100,83.5,72.85,124,73,98.59l.18-.1.35-.19.52-.29.66-.37,5.12-2.86L81,94.14l1.18-.66,2.23-1.25.62-.35,1.9-1.06L89,89.64,90.24,89,92,88l.82-.46,1.27-.71,5.3-3,.4-.22.16-.09Z"/><path class="clsEth-5" d="M50.7,77.55l-.29-.07,13.5-24,13.5-24"/><polygon class="clsEth-5" points="104.42 77.63 77.49 92.17 77.42 92.13 50.56 77.63 50.71 77.55 77.42 65.89 77.49 65.86 104.22 77.52 104.42 77.63"/><path class="clsEth-5" d="M77.41,29.54l13.5,24,13.5,24-.19,0"/><path class="clsEth-5" d="M50.75,82.93c1,.5,5.28,2.93,10.19,5.69Z"/><path class="clsEth-5" d="M68.4,92.8l9,5C76.51,97.35,72.8,95.27,68.4,92.8Z"/><path class="clsEth-5" d="M77.74,97.81l6.1-3.4C80.77,96.13,78.4,97.46,77.74,97.81Z"/><path class="clsEth-5" d="M95.4,87.94c4.41-2.47,8.12-4.55,9-5Z"/><polygon class="clsEth-5" points="77.42 29.54 77.42 65.89 50.71 77.55 77.42 29.54"/><polygon class="clsEth-5" points="104.22 77.52 77.49 65.86 77.42 65.89 77.42 29.54 104.22 77.52"/><polyline class="clsEth-4" points="77.42 92.17 77.42 92.13 77.42 65.89"/><path class="clsEth-5" d="M77.56,97.91l-.14,25.36L50.56,82.83h0l.16.09.22.12L60,88.11l.91.51L63.35,90,66,91.43l1.24.69,1.21.68c1.38.77,2.68,1.51,3.86,2.16.47.27.91.52,1.34.75.84.48,1.59.89,2.2,1.23.45.26.83.47,1.12.62l.45.25.16.09Z"/><path class="clsEth-5" d="M104.56,82.83,77.42,123.27l.14-25.36h0a1.65,1.65,0,0,0,.16-.09c.66-.35,3-1.68,6.1-3.4L85,93.79l1.76-1,1.22-.68,1.24-.69,3.15-1.77,1.86-1,1.22-.68,9-5,.16-.09Z"/><path class="clsEth-6" d="M50.15,77.25l-.3-.07,13.5-24q6.75-12,13.5-24"/><polygon class="clsEth-6" points="103.86 77.33 76.93 91.86 50 77.33 50.15 77.25 76.93 65.56 103.66 77.22 103.86 77.33"/><path class="clsEth-6" d="M76.85,29.24q6.75,12,13.5,24l13.5,24-.19,0"/><path class="clsEth-6" d="M77,97.61c-.09,0-26.9-15.11-27-15.09"/><path class="clsEth-6" d="M104,82.52c-.06,0-26.94,15.1-27,15.09"/><line class="clsEth-6" x1="76.85" y1="29.24" x2="76.85" y2="91.86"/><line class="clsEth-6" x1="77" y1="97.61" x2="76.85" y2="122.97"/><line class="clsEth-6" x1="50" y1="82.52" x2="76.85" y2="122.97"/><line class="clsEth-6" x1="104" y1="82.52" x2="76.85" y2="122.97"/><path class="clsEth-7" d="M123.68,138A75.23,75.23,0,0,1,38,145.85l107.9-91A75.23,75.23,0,0,1,123.68,138Z"/><path class="clsEth-8" d="M137.91,39,23.72,135.27a75.13,75.13,0,0,1-6-6.33L132.69,32A76.65,76.65,0,0,1,137.91,39Z"/><path d="M27,51.93l-1,3a25.19,25.19,0,0,0-.91,3l-.74,3c-.27,1-.33,2-.52,3.06a56.52,56.52,0,0,0-1.27,12.3l.15,3.1L22.78,81l.2,1.54.41,3.07c.2,1,.44,2,.65,3,.37,2,1.11,4,1.68,6,.31,1,.75,1.92,1.12,2.89a28.55,28.55,0,0,0,1.22,2.84,53.88,53.88,0,0,0,3,5.45c.56.87,1.05,1.79,1.66,2.62l1.84,2.5a23.48,23.48,0,0,0,2,2.39l2.05,2.32,2.25,2.14,1.12,1.07c.38.35.8.65,1.2,1a53.38,53.38,0,0,0,10.32,6.83,60.39,60.39,0,0,0,11.38,5.11,54.69,54.69,0,0,1-12.07-3.78,54.79,54.79,0,0,1-10.59-7c-.4-.33-.84-.64-1.23-1l-1.15-1.1-2.31-2.19-2.1-2.39a23.79,23.79,0,0,1-2-2.46l-1.89-2.56c-.63-.85-1.13-1.79-1.7-2.69a53.74,53.74,0,0,1-3-5.59A27.93,27.93,0,0,1,25.45,98c-.38-1-.83-2-1.15-3a62.49,62.49,0,0,1-1.72-6.12c-.22-1-.46-2.07-.67-3.11l-.42-3.16-.21-1.57L21.2,79.5l-.15-3.18a59.5,59.5,0,0,1,1.29-12.63A54.64,54.64,0,0,1,27,51.93Z"/><path d="M85.77,133.15l3.28-.63,1.63-.32c.54-.13,1.06-.31,1.6-.46l3.19-.91c1-.36,2.07-.78,3.1-1.17l1.54-.6c.51-.21,1-.48,1.49-.71l3-1.46c1-.54,1.89-1.13,2.83-1.69l1.41-.85c.46-.3.89-.64,1.34-1,.89-.64,1.8-1.24,2.71-1.86s1.71-1.38,2.56-2.07l1.27-1,1.18-1.15,2.37-2.29,2.16-2.48c.36-.42.73-.82,1.07-1.25l1-1.32c.64-.89,1.31-1.76,1.93-2.66l1.72-2.81c.28-.47.59-.93.85-1.41l.73-1.48c.48-1,1-1.95,1.46-2.95l1.21-3.05c.19-.52.43-1,.58-1.54l.47-1.58c.31-1,.65-2.09.92-3.16l.66-3.22c.1-.54.24-1.07.31-1.61l.18-1.64.35-3.27.07-3.29,0-1.64L135.8,73l-.24-3.28L135,66.45l-.27-1.62-.4-1.6-.81-3.18-1.08-3.11c-.18-.52-.34-1-.55-1.55l-.67-1.51c-.45-1-.87-2-1.35-3L128.33,48a27.72,27.72,0,0,0-1.73-2.8c-.62-.91-1.18-1.85-1.85-2.73a59.45,59.45,0,0,0-4.21-5c-.77-.79-1.46-1.64-2.28-2.37l-2.45-2.21a29.84,29.84,0,0,0-2.56-2.05l-1.31-1a12.53,12.53,0,0,0-1.35-.94l-2.78-1.76-.69-.44-.73-.38-1.47-.75-1.46-.76-.73-.37-.76-.31-3-1.25-.77-.31-.78-.24-1.57-.48c-1.06-.3-2.09-.7-3.16-.91a57.06,57.06,0,0,0-26.09-.15A58.1,58.1,0,0,0,42.64,31.63,57.33,57.33,0,0,1,66.22,19.29,58.52,58.52,0,0,1,93,19.44c1.11.22,2.16.63,3.25.94l1.61.49.81.25.78.32,3.13,1.27.78.32.75.39,1.5.77,1.5.78.75.39.72.45,2.85,1.81a11,11,0,0,1,1.38,1l1.35,1a31.53,31.53,0,0,1,2.63,2.11L119.3,34c.84.74,1.55,1.62,2.34,2.43A59.57,59.57,0,0,1,126,41.59c.68.89,1.26,1.86,1.9,2.79a29.09,29.09,0,0,1,1.77,2.87l1.62,3c.49,1,.93,2,1.39,3.08l.69,1.54c.2.52.37,1.06.56,1.59L135,59.61l.83,3.28.41,1.63.28,1.67.53,3.33.25,3.37.12,1.69,0,1.69-.07,3.38L137,83l-.19,1.67c-.07.56-.21,1.11-.32,1.66l-.67,3.31c-.28,1.09-.63,2.16-.94,3.25l-.49,1.61c-.16.54-.4,1-.6,1.58l-1.24,3.14c-.47,1-1,2-1.49,3l-.76,1.51c-.26.5-.58,1-.86,1.45l-1.77,2.88c-.64.92-1.32,1.82-2,2.73l-1,1.36c-.36.43-.74.85-1.11,1.28L121.32,116l-2.42,2.35-1.21,1.18-1.31,1.07-2.61,2.14c-.92.64-1.84,1.29-2.79,1.9-.47.31-.93.63-1.42.92l-1.49.79c-1,.52-2,1.07-3,1.57l-3.1,1.32c-.51.21-1,.45-1.55.64l-1.6.52c-1.06.34-2.12.7-3.19,1l-3.27.74c-.55.12-1.09.25-1.64.35l-1.66.21Z"/><path d="M143.49,113.73a78.16,78.16,0,0,0,7.09-20.68,74.29,74.29,0,0,0,1.78-21.64,76.71,76.71,0,0,0-1.45-10.78L150.28,58,150,56.65l-.39-1.3-.78-2.61-.93-2.56a72.36,72.36,0,0,0-10.48-19A74.34,74.34,0,0,0,102.57,6,73.54,73.54,0,0,0,81.24,2,76.76,76.76,0,0,0,59.41,3.34,73.16,73.16,0,0,1,81.32,0a75.39,75.39,0,0,1,21.9,4.14A76.41,76.41,0,0,1,139,30a74.55,74.55,0,0,1,10.77,19.51l.95,2.64.8,2.67.4,1.34.33,1.36.65,2.72a78,78,0,0,1,1.48,11.08,77.15,77.15,0,0,1-1.81,22.21c-.2.91-.53,1.79-.8,2.68s-.55,1.78-.88,2.65c-.68,1.73-1.28,3.49-2.09,5.16A68.75,68.75,0,0,1,143.49,113.73Z"/><path d="M48.46,145.06q3,.81,5.86,1.65l5.9,1.22,5.88,1.17,6,.68a77.71,77.71,0,0,0,23.84-2A76,76,0,0,0,118,138.71l5-3.35,4.67-3.75,4.67-3.82c1.43-1.42,2.88-2.82,4.37-4.23q-1.77,2.47-3.61,4.95l-4.11,4.6-4.8,3.86-5.11,3.44a78.62,78.62,0,0,1-22.69,9.36,80.12,80.12,0,0,1-24.45,2l-6.12-.7-6-1.19L54,147.75C52.11,146.87,50.28,146,48.46,145.06Z"/><path d="M4.21,88.2c.45,1.41.89,2.8,1.3,4.19L7,96.46l1.31,4.1,1.57,4a74.87,74.87,0,0,0,8.55,14.92,78.78,78.78,0,0,0,11.66,12.68l3.33,2.74,3.47,2.56,3.38,2.74q1.75,1.29,3.51,2.62c-1.35-.55-2.72-1.11-4.07-1.7l-4-2-3.57-2.62-3.41-2.81a81,81,0,0,1-12-13A77.13,77.13,0,0,1,8,105.36l-1.62-4.13L5.07,97c-.23-1.47-.44-2.94-.63-4.39S4.26,89.66,4.21,88.2Z"/><path d="M10.61,43.64c-.11.74-.25,1.45-.39,2.16l-.41,2.12c-.55,1.28-1,2.6-1.5,3.92A73.75,73.75,0,0,0,4.66,68.2c-.14,1.39-.25,2.79-.33,4.19-.36,1.38-.69,2.78-1.09,4.2-.19-.71-.36-1.42-.52-2.14l-.39-2.16c.08-1.44.2-2.87.34-4.3A76.47,76.47,0,0,1,6.42,51.18l.74-2,.78-2c.42-.61.84-1.21,1.27-1.8S10.13,44.2,10.61,43.64Z"/><path d="M48.58,7.08c-.84.6-1.68,1.19-2.52,1.76l-2.47,1.78L41,12.08l-2.55,1.58A74.77,74.77,0,0,0,28.9,21a76.36,76.36,0,0,0-8.25,8.71L18.81,32l-1.74,2.44-2,2.27c-.66.78-1.33,1.55-2,2.33.35-1,.72-1.94,1.11-2.9l1.29-2.82,1.79-2.51L19.1,28.4a78.56,78.56,0,0,1,8.46-8.94A77.05,77.05,0,0,1,37.33,12L40,10.36l2.68-1.52,2.95-1C46.58,7.57,47.58,7.31,48.58,7.08Z"/><path class="clsEth-9" d="M75.2,5.28a75.19,75.19,0,1,0,75.19,75.19A75.19,75.19,0,0,0,75.2,5.28Zm0,133.6a58.42,58.42,0,1,1,58.41-58.41A58.41,58.41,0,0,1,75.2,138.88Z"/></g></g></svg>