<svg xmlns="http://www.w3.org/2000/svg" viewBox="0 0 144.89 80.36"><defs><style>.cls-1{fill:#202020;}</style></defs><title>flecha</title><g id="Layer_2" data-name="Layer 2"><g id="Layer_7" data-name="Layer 7"><path class="cls-1" d="M0,48.74s0,0,.11,0l.08,0Z"/><path class="cls-1" d="M.85,48.74c.15,0,.31-.11.22-.15s-.18,0-.33.13-.22,0-.2,0-.19,0-.26,0a1.71,1.71,0,0,0,.58,0C.91,48.71.86,48.73.85,48.74Z"/><path class="cls-1" d="M12.94,47.47h-.09A.14.14,0,0,0,12.94,47.47Z"/><path class="cls-1" d="M20.28,45.63c-.05,0-.06.06-.05.09S20.31,45.65,20.28,45.63Z"/><path class="cls-1" d="M21.64,45.56h-.08S21.63,45.59,21.64,45.56Z"/><path class="cls-1" d="M12.94,47.47l.21,0C13.15,47.42,13,47.47,12.94,47.47Z"/><path class="cls-1" d="M2.51,48.4l-.11,0,.1,0Z"/><path class="cls-1" d="M9.7,48.28H9.64a.39.39,0,0,0,0,.09Z"/><path class="cls-1" d="M7.16,48.61c.06,0,.06-.16.07-.23a.15.15,0,0,1-.11.12A.19.19,0,0,0,7.16,48.61Z"/><path class="cls-1" d="M3.1,48.69l-.07,0Z"/><path class="cls-1" d="M11.52,48a.21.21,0,0,0,0,.07A.25.25,0,0,0,11.52,48Z"/><path class="cls-1" d="M62.65,2.74h0S62.66,2.72,62.65,2.74Z"/><path class="cls-1" d="M63.82,0v0h0Z"/><path class="cls-1" d="M24,45h0S24,45.06,24,45Z"/><path class="cls-1" d="M42.4,33.29c-.31,0,.15-.45-.27-.37C42.21,33,42.09,33.39,42.4,33.29Z"/><path class="cls-1" d="M2.58,48.4l.1,0Z"/><path class="cls-1" d="M42.13,32.92Z"/><path class="cls-1" d="M28.93,42.55a.38.38,0,0,0-.11-.08A.21.21,0,0,0,28.93,42.55Z"/><path class="cls-1" d="M25.07,44h.1A.17.17,0,0,0,25.07,44Z"/><path class="cls-1" d="M30.62,41.22c.06,0,.1,0,.14,0l0,0S30.7,41.23,30.62,41.22Z"/><path class="cls-1" d="M32.51,40.08l-.06,0-.05.05Z"/><path class="cls-1" d="M60.05,8.8a.24.24,0,0,1,.11-.06C60.09,8.74,60.21,8.45,60.05,8.8Z"/><path class="cls-1" d="M2.51,48.44s0,0,.07,0H2.5S2.5,48.44,2.51,48.44Z"/><path class="cls-1" d="M29.64,39.24l.33-.11A.92.92,0,0,0,29.64,39.24Z"/><path class="cls-1" d="M51.59,21.76l0-.07A.13.13,0,0,0,51.59,21.76Z"/><path class="cls-1" d="M30.83,38.59a.46.46,0,0,0,.26.07v-.08Z"/><path class="cls-1" d="M60.16,8.74Z"/><path class="cls-1" d="M61,6.61c-.14.3,0,.18,0,.26-.14.37-.14.14-.24.24s-.08.43-.16.6c0,0-.05,0-.05,0,0,.26-.32.69-.35,1l0,0a.13.13,0,0,1,.15,0c-.06.13-.05.28-.14.3a.22.22,0,0,0,0-.15l0,.15c-.15.08.06-.21,0-.24a4.31,4.31,0,0,1-.29.84c-.11,0,.2-.5,0-.26L60,9.09c-.26.18.1-.19-.16,0a9.23,9.23,0,0,1-.42.9c0,.12.1,0,.1.13-.23.63-.51.33-.62.82a.47.47,0,0,1-.13.52l0-.16c-.24.38,0,.31-.28.68,0-.1.14-.33.09-.28-.25.22,0,.23-.15.44l-.14,0c-.22.43-.4.94-.65,1.41,0,0,0-.14-.1-.05a6.52,6.52,0,0,1-.52.92c-.21.28-.45.55-.67.8l0,.27s-.1.06-.09,0c-.18.18.06.06,0,.18s-.16.12-.15,0a4.1,4.1,0,0,1-.89,1.5V17c-.25.27,0,.5-.29.71l0-.06c-.5.62-.88,1.44-1.46,1.76.11.22-.57.56-.35.78a3.61,3.61,0,0,0-.86.57c-.11.12,0,.32-.1.5l-.14-.1,0,.34h-.25l-.09.18c.06-.05.16-.08.2,0-.14.29-.57.51-.64.46l-.34.67c-.05-.06,0-.17,0-.28-.1.42-.19-.06-.28.32.06,0,.06.09.09.12a1.56,1.56,0,0,0-.65.61L50,23.42c-.4.37-.74.87-1.15,1.32.19-.12.33.07.22.21l-.2-.08c0,.17.19-.09.14.19s-.28,0-.24-.18l-.13.25c-.06,0,0-.1-.08-.17,0,.17-.48.21-.43.48l-.06,0c-.41.44-.55.69-.88,1.06.13.13,0,.25,0,.46a6.11,6.11,0,0,0-1,.69c-.16.27,0,.17,0,.35-.14-.11-.45.2-.37,0a5.72,5.72,0,0,0-.85,1c.1,0,.18,0,.19,0s-.25.14-.3.06v0c-.36.72-1.61.79-1.8,1.46v0L42.7,31c-.25.15,0-.22-.21-.18-.31.66-.85.62-1.13,1.13-.7-.18-1.15,1-1.83,1l.11.09c0,.2-.19,0-.29.09.08.08.2,0,.18.12-.87.93-2.24,1.32-3.37,1.92-.41.23.23.8-.47.83l0-.33a3.64,3.64,0,0,1-1.1.93,4.15,4.15,0,0,0-1.17.81c0-.09,0-.17.05-.21-.29-.09-.64.34-.55.5-.13.06-.11-.12-.24-.16s-.27.49-.48.35c0,0,0-.09,0-.12-.05.15-.53.26-.29.43-.36.06-.51.43-.83.43,0,.35-.59.17-.43.57-.2-.4-.69,0-.8.27,0-.15-.24,0-.25-.25-.22.11-.39.29-.24.47-.67-.28-.63.8-1.19.29a13.8,13.8,0,0,1-1.65,1.4c-.18-.43.65-.37.41-.8-.48.45-.64,1-1.25,1.16-.18,0,0-.23,0-.32-.48.47-1.14.44-1.55.9,0,0,0-.11.06-.16s-.27,0-.17.22l.07-.09c.29.22-.15.76-.1.92-.07-.63-.58.08-.6-.75a.28.28,0,0,0,0,.32c-.12,0-.18-.06-.14-.25-.32.26-.11.41-.44.55,0-.1,0-.16,0-.29-.09.26-.19.51-.5.55,0-.06-.07-.12,0-.16-.47.24-.64.84-1.24.89,0-.47-.23-.06-.39-.39a2.52,2.52,0,0,1-.25.21l.18.13c-.26.08-.4.41-.66.37l.14-.21-.46.23.32,0c-.2.27.19.43-.19.45.05-.06-.27.08-.47-.08h0c-.09.15-.18.31-.41.29s-.08-.39-.14-.45c0,.33-.57.28-.64.64a.45.45,0,0,0-.05-.3l0,.26c-.15,0-.17-.06-.2-.2-.37.08.25.38-.24.34,0,0,0-.06.06-.11-.45,0-.78.42-1.21.44-.21-.28.32-.2.11-.43a6.42,6.42,0,0,0-.81.51,2.18,2.18,0,0,1-.85.33H15c0,.46-.48-.11-.71.17.06-.05,0-.27,0-.21a4.2,4.2,0,0,0-1.31.59l.05-.13a5.35,5.35,0,0,0-.87.12c0,.12-.19.14-.07.27-.88-.38-1.38.69-2.16.33.08,0,.18-.11.11-.1l-.56.19c.07.14.09.08.23.17a.48.48,0,0,1-.35.22c.24-.14-.05-.24-.18-.3,0,0,0,.1,0,.14-.35-.2,0,.31-.45.2v-.08a1.49,1.49,0,0,1-.45.19c-.1-.15.15-.1.14-.24-.23.06-.42.38-.65.26.09-.06.23-.09.33-.15a.61.61,0,0,0-.46-.09H7.31l.11,0c-.24.43-.59.18-1,.48.36-.29,0-.14.06-.3s-.27,0-.23-.09c-.17.16-.32,0-.57.19,0,0-.2,0-.17-.09-.24.09.07.07,0,.13-.36.23-.9-.06-1.43.2s-.54.24-1,.33c-.15,0,.11-.13.11-.13a1.52,1.52,0,0,0-.64.06s0,0-.08-.08-.11.12-.35.1a.92.92,0,0,1,.17-.13c-.21,0-.42.12-.64.16-.06,0,.13-.07.21-.11a3.34,3.34,0,0,0-.71.17h.16c-.09,0,0,0,0-.06.21-.07.31,0,.33,0l-.16,0c.17.12.63-.07.95-.1l-.13.13.32-.13c.07,0,.12.1,0,.13.23,0,.2-.06.4,0,0,0,0,0,0,0l.22,0s0,.1-.09.08c.4.07.63-.14.79,0H4c.55-.08,0-.12.45-.29l.31.3,0-.13s.17,0,.15.06c.21-.11,0-.06.08-.15.29.12.74-.15.83.08.09-.13-.27,0,0-.17.12.24.33-.1.6,0-.06.15-.31.1,0,.19.12-.25.49,0,.7-.08,0-.2.45-.14.79-.26,0,.08.69,0,1,.07v0c0-.23.37-.24.61-.32a.27.27,0,0,1-.14.29l.23,0a.37.37,0,0,1,.25-.19l0,.19c.31,0,.59-.28,1-.23,0-.19-.41-.42,0-.64,0,.09.08.25,0,.32s.11-.11.19-.09l-.13.2c.19,0,.06-.15.21-.17,0,.14.12.08.13.19s-.14,0-.19,0a.69.69,0,0,1,.47.12.16.16,0,0,1,.08-.23c.3-.08.14.15.33.19.06-.12.27-.06.23-.28.09,0,.13.08.18.14.14-.14.73-.19.5-.39h0c.46-.35,1.11-.12,1.6-.33l0,.08c.28-.16.67-.2.84-.43a.24.24,0,0,1,.24.21c.22-.12.22-.21.59-.17-.19.22.12.12-.21.18.33,0,.43.1.69-.23-.05.25.31.21.43.1l-.26-.1a1.26,1.26,0,0,1,.45-.12v.31c.73.18.92-.95,1.58-.48.09-.26-.38-.05-.32-.34.3,0,.73.3.82.27.45,0,.22-.55.66-.56a.37.37,0,0,1,0-.57c.3,0,.51.35.37.5s-.11,0-.12,0-.18.16,0,.24v-.12c.18.07.56-.06.54.15.17-.18,0-.21-.16-.22.42,0,.58-.16,1-.2-.08,0-.18-.15-.12-.17.58-.08.15-.31.49-.5.27.09.08.44.39.15.27,0,.16.28.11.4.25-.35.68-.1.89-.14l-.14.17a.59.59,0,0,1,.26-.17l-.2-.18c.12,0,.21,0,.25.06,0-.19-.24-.35-.11-.64.18.06.36-.29.54,0-.48.07.17.28-.18.47a.42.42,0,0,1,.27-.1s0,.07,0,.1c.52.1,0-.42.47-.58,0,.19.24.28.29.22-.17.06-.2-.25-.1-.45.33,0,.26-.22.41-.26h-.19c0-.2.12-.23.29-.36.07.12-.13.16,0,.19.08-.38.61.11.81-.21.19.06.16.31.32.34.22-.36.45.06.7-.28-.2-.18-.19-.12-.06-.46l-.47.44.2-.5c-.17.08-.28.31-.4.32.08-.26.09-.2-.07-.35.38.23.35-.42.72-.32l.25.56c.51,0,.56-.64,1.14-.77h-.21c0-.25.3-.19.42-.36.08.19.21.2.34.28-.08-.13.38-.19.24-.57l.35.12c.46-.12.2-.75.63-.89,0,.25.23.28,0,.56.13-.07.26-.1.2-.22.14.07.24-.42.45-.32,0-.11-.07-.3.09-.36a.2.2,0,0,1,0,.09c0-.08.16-.25-.07-.36.69.29,1.07-.7,1.66-.47a7.32,7.32,0,0,1,.78-.64c0,.06.05.08,0,.09.43-.07-.06-.58.43-.66.35.13-.13.27.06.28.37.48.43-.36.87-.23l0,.07c.3,0,.37-.49.72-.66a.13.13,0,0,0,0,.07,2.48,2.48,0,0,1,.68-1c0,.25-.07.2.11.34.12-.12-.24-.27,0-.52.16,0,.41,0,.57.17l-.25.19c.31.16.33-.25.49-.3l.06.12c.36-.32.18-.6.61-.88l-.1-.05c0-.43.3,0,.39-.35l.26.22a5.13,5.13,0,0,1,.57-.88,2.87,2.87,0,0,1-.36.89c.15-.1.49-.39.47-.57,0,.07-.07.19-.15.19a1.09,1.09,0,0,1,.5-.82c.32.53.87-.43,1.35-.24.36-.6,1-.76,1.61-1.29-.5-.18.16-.15-.17-.48.11-.14.17-.18.2-.16l.59-.13c.18,0-.07.18,0,.25.32-.22.26.05.53,0-.15-.09,0-.26.16-.36l-.38,0c.26-.53.61,0,.87-.55l0,.22c.17-.24.79-.68.74-1.15.07,0,.2.05.13.16.51-.43.81-1.32,1.33-1.53l0,.11c.07-.11,0-.29.2-.32s0,.11.09.07.11-.36.27-.44l0,.19c.56-.37.51-.91.85-1.34.21.21.66-.08.86-.24l0,0a10.6,10.6,0,0,0,1.06-1.75c.51-.13,1.06-1,1.64-1.45-.1.05-.14-.15-.08-.26s.16-.46.33-.29l0,0c.26.06.45-.23.61-.44l-.21-.23c.75-.28,1-1.55,1.48-1.61,0-.18.17-.35.21-.52l.12.1a7.57,7.57,0,0,0,.76-1l0,.16c.2-.26-.1-.58.07-.82l.23.06a3.87,3.87,0,0,0,.92-1.41.12.12,0,0,1,0,.15c.15-.22.65-.79.38-.86.15.09.32-.48.42-.78l.08.11a1.05,1.05,0,0,1,.12-.66c.06-.06.13,0,0,.07.2-.2,0-.25.26-.5v.15a.49.49,0,0,0,.13-.42c.06-.18.32-.45.43-.43a.39.39,0,0,1,.1-.37s0,.06,0,.09c.32-.36.23-.69.49-.93a.06.06,0,0,0,.08,0c-.18.34-.33.61-.32.58s.25-.22.26.08a2.41,2.41,0,0,1,.28-1l0,0v0a.58.58,0,0,0,.08-.18l.14-.2c.08,0,.2-.3.27-.44-.09,0,0-.21-.15-.08,0,0,0,0,0,.13l0,.06v0l-.17.35a.52.52,0,0,1,.16-.39l0-.28c.23-.11.49-.44.59-.45a4.5,4.5,0,0,0,.46-1.35c0-.13.12-.11.17-.14a1.65,1.65,0,0,0-.07.2c.09-.25.36-.71.28-.82.21-.27,0,.22.2-.2v.07c.51-.77.34-1.49.93-2.33,0,.06-.06.09-.08.1a16.87,16.87,0,0,0,.71-1.62l.68-1.61A1.56,1.56,0,0,0,62.52,4l.07,0,0-.34c.11-.47.38-.75.49-1.35l-.05.07a3.64,3.64,0,0,1,.22-.62.21.21,0,0,1,0-.15h0l.13-.52c.15-.39.06.09.25-.49a2.18,2.18,0,0,0,.11-.54c0,.08-.08.21-.1.21l.06-.19s0-.21-.23.25l-.09.34-.07.1.1-.28a1.06,1.06,0,0,0-.12.37.36.36,0,0,0-.08.13l-.07.34s0-.16-.08.05.1-.13,0,.13a.66.66,0,0,0-.14.29s0,0,0-.1a5.23,5.23,0,0,0-.15.54c-.1.15-.19.55-.25.52s-.06.3-.11.46c0-.31-.21.56-.28.45A10,10,0,0,1,62,4.79a.34.34,0,0,1,0-.1,1.53,1.53,0,0,1-.2.37c.06.05-.06.37-.09.55-.19.21,0-.18-.13-.14.07,0-.14.45,0,.39-.14.16-.1.15-.21.21.09.08-.07.18-.07.36-.18.25-.14,0-.24.33C60.88,6.89,61,6.61,61,6.61Zm-3.31,6.9h0l.08-.14Zm-.32.57.14-.24c.05,0,.07,0,0,.09S57.41,14,57.33,14.08Zm1.31-.83c0,.1-.07.12-.09.12l.07-.17v0A.09.09,0,0,1,58.64,13.25Z"/><path class="cls-1" d="M58.61,13a.09.09,0,0,1,0,0l0,0v0Z"/><path class="cls-1" d="M12.84,47.46h0l0,0S12.83,47.45,12.84,47.46Z"/><polygon class="cls-1" points="51.98 21.16 52.01 21.18 52.02 21.12 51.98 21.16"/><path class="cls-1" d="M9.21,47.5s0,0-.05,0A.1.1,0,0,0,9.21,47.5Z"/><path class="cls-1" d="M7.7,47.73h0Z"/><path class="cls-1" d="M6.53,47.87a.2.2,0,0,0,0,.07h0Z"/><path class="cls-1" d="M24.21,42.19l0,0C24.32,42.07,24.26,42.11,24.21,42.19Z"/><path class="cls-1" d="M19.3,44.85a1.18,1.18,0,0,1,.13-.18C19.33,44.68,19.25,44.7,19.3,44.85Z"/><polygon class="cls-1" points="29.61 39.25 29.61 39.25 29.64 39.24 29.61 39.25"/><path class="cls-1" d="M19.67,44.6a.23.23,0,0,0-.24.07A.4.4,0,0,0,19.67,44.6Z"/><path class="cls-1" d="M1.46,48.52H1.4Z"/><path class="cls-1" d="M1.4,48.54h0Z"/><path class="cls-1" d="M1.2,48.58l.14,0A.49.49,0,0,0,1.2,48.58Z"/><path class="cls-1" d="M3,48.37v0S3,48.35,3,48.37Z"/><path class="cls-1" d="M3.49,48.3a2.15,2.15,0,0,0-.44,0l0,0C3.1,48.27,3.39,48.37,3.49,48.3Z"/><path class="cls-1" d="M5.52,48.65a2.67,2.67,0,0,1-.4,0c.07,0,.17.11,0,.13C5.63,48.89,5,48.67,5.52,48.65Z"/><path class="cls-1" d="M6.76,48.58c-.21.05,0,.08,0,.11S6.93,48.61,6.76,48.58Z"/><path class="cls-1" d="M15.63,47l0,.22C15.83,47.19,15.65,47.17,15.63,47Z"/><polygon class="cls-1" points="16.94 45.39 16.75 45.31 16.73 45.54 16.94 45.39"/><polygon class="cls-1" points="18.41 46.7 18.35 46.76 18.59 46.59 18.41 46.7"/><path class="cls-1" d="M32.3,40.5l-.2-.24C32,40.37,32.18,40.68,32.3,40.5Z"/><path class="cls-1" d="M37.6,36.62a.23.23,0,0,0,.35-.15C37.82,36.55,37.64,36.55,37.6,36.62Z"/><polygon class="cls-1" points="52.04 23.41 52.01 23.56 52.12 23.32 52.04 23.41"/><path class="cls-1" d="M71.59,80.35s0,0-.06-.08l-.09,0Z"/><path class="cls-1" d="M71,79.8c-.12-.07-.28-.12-.25,0s.16.08.31.12.14.14.12.14.13.12.2.14a1.4,1.4,0,0,0-.41-.34S71,79.8,71,79.8Z"/><path class="cls-1" d="M62.52,72.47l0,.07A.1.1,0,0,0,62.52,72.47Z"/><path class="cls-1" d="M57,68.26a.07.07,0,0,0,.1,0S57,68.23,57,68.26Z"/><path class="cls-1" d="M56.16,67.29l0,.06S56.18,67.28,56.16,67.29Z"/><path class="cls-1" d="M62.52,72.47l-.09-.18C62.36,72.35,62.46,72.4,62.52,72.47Z"/><path class="cls-1" d="M69.71,79l.1,0L69.73,79Z"/><path class="cls-1" d="M65.06,74.22l0,0,.09,0Z"/><path class="cls-1" d="M66.87,75.73s-.15.07-.2.11a.16.16,0,0,1,.15,0A.23.23,0,0,0,66.87,75.73Z"/><path class="cls-1" d="M69.53,78.37l.06,0Z"/><path class="cls-1" d="M63.77,73.11a.13.13,0,0,0,0-.07Z"/><path class="cls-1" d="M3.14,49.27Z"/><path class="cls-1" d="M.46,48.71h0v0Z"/><path class="cls-1" d="M54.5,65.8h0C54.57,65.81,54.54,65.8,54.5,65.8Z"/><path class="cls-1" d="M36.38,57.08c.14.27-.43.09-.2.42C36.18,57.41,36.6,57.31,36.38,57.08Z"/><path class="cls-1" d="M69.67,78.93l-.08-.06Z"/><path class="cls-1" d="M36.18,57.5h0l0,0Z"/><path class="cls-1" d="M50.05,63.39a.62.62,0,0,0,0,.13A.23.23,0,0,0,50.05,63.39Z"/><path class="cls-1" d="M53.1,65.62l-.05-.08A.16.16,0,0,0,53.1,65.62Z"/><path class="cls-1" d="M48.15,62.81c0-.05,0-.09-.11-.09v0S48.12,62.74,48.15,62.81Z"/><path class="cls-1" d="M46.34,61.89V62h.07Z"/><path class="cls-1" d="M9.16,50.32a.32.32,0,0,1-.08-.09C9.1,50.29,8.81,50.26,9.16,50.32Z"/><path class="cls-1" d="M69.74,78.94h-.07l.06,0S69.75,79,69.74,78.94Z"/><path class="cls-1" d="M47,64.71l-.25-.2A1,1,0,0,0,47,64.71Z"/><path class="cls-1" d="M23.09,53.94H23S23.07,54,23.09,53.94Z"/><path class="cls-1" d="M45.93,64.09a.68.68,0,0,0-.07-.25l-.07,0Z"/><path class="cls-1" d="M9.08,50.23Z"/><path class="cls-1" d="M7,50c.3.06.15-.06.22-.1.37,0,.16.1.27.17a5.58,5.58,0,0,1,.58,0s0,0,0,0c.25,0,.7.13,1,.08l0,0a.16.16,0,0,1,0-.15c.13,0,.26,0,.3.05a.17.17,0,0,0-.14,0h.15c.1.13-.2,0-.22.08a5.21,5.21,0,0,1,.83.05c0,.11-.5-.05-.24.09l-.32-.1c.22.21-.19-.05,0,.16.42.12.48,0,.9.16.11,0,0-.09.09-.13.63,0,.42.39.89.34.13,0,.2-.18.5,0l-.13.1c.41.11.27-.13.69.05-.09,0-.34,0-.28,0,.26.17.22,0,.43,0l0,.13c.44.08.94.1,1.43.19,0,0-.13.05,0,.12a6.31,6.31,0,0,1,1.85.57l.26-.06c.05,0,.08.08,0,.09.21.1,0-.08.15-.1s.15.12.06.13a3.69,3.69,0,0,1,1.59.33l-.1,0c.32.14.45-.18.72,0h-.07a6.89,6.89,0,0,1,2,.72c.17-.18.68.31.8,0a3.2,3.2,0,0,0,.77.57c.15.07.28-.12.48-.09l0,.16.3-.09.08.24H23c-.07,0-.13-.12-.11-.16.3,0,.64.32.62.41l.69.06c0,.06-.15,0-.25.07.4-.07,0,.2.37.14,0-.06.06-.1.08-.13a1.31,1.31,0,0,0,.75.33l-.09.11c.47.2,1,.3,1.55.49a.16.16,0,0,1,.11-.3v.22c.14-.08-.14-.13.11-.2.2.09.06.26-.07.29H27c0,.07-.07.08-.11.15.14-.09.35.34.57.18v.07c.53.19.79.21,1.23.35.07-.17.23-.07.41-.17a4.81,4.81,0,0,0,1,.59c.3,0,.14-.12.3-.18,0,.17.34.31.1.35a5.39,5.39,0,0,0,1.22.28c0-.09-.1-.15,0-.19s.21.16.17.24h0c.75,0,1.3,1.08,1.95.93h0l.61,0c.22.13-.2.06-.07.25.69,0,.88.44,1.42.44.14.7,1.3.53,1.64,1.09l0-.14c.18-.07.12.14.2.21,0-.11-.08-.18,0-.21a11.64,11.64,0,0,1,3.08,1.88c.37.23.56-.6.89,0l-.26.19c.94.07,1.59.82,2.48,1-.08,0-.12.12-.19.08.06.28.58.34.67.17.1.09-.05.17,0,.29s.53,0,.51.21c0,0-.08,0-.11,0,.15,0,.47.29.49,0,.22.27.6.2.75.46.29-.19.41.39.66,0-.23.38.33.58.6.51-.12.08.09.21-.07.34.2.11.43.15.5-.08.11.7,1,0,.83.79a11.53,11.53,0,0,1,1.95.52c-.25.39-.62-.3-.84.13.61.13,1.1,0,1.56.34.1.13-.18.13-.27.18.62.12,1,.63,1.54.68a.34.34,0,0,1-.16,0c.09,0,.17.18.27,0h-.12c0-.35.69-.34.79-.47-.47.43.36.4-.28.92a.32.32,0,0,0,.27-.17c.06.08,0,.17-.12.26.37.09.38-.17.66,0-.05.08-.13.08-.22.17.25-.09.5-.17.7.06,0,0-.06.12-.14.08.44.22,1,0,1.35.42-.36.29.08.22-.09.55l.3,0V69c.21.14.54,0,.66.26l-.24,0,.43.2-.14-.26c.31,0,.23-.4.45-.13-.08,0,.21.14.2.39h0c.17,0,.34-.06.45.12s-.25.31-.27.39c.27-.19.54.25.85.07a.59.59,0,0,0-.2.23l.22-.14c.06.13.05.17,0,.28.27.23.15-.43.39,0,0,0,0,0-.12,0,.3.31.76.33,1,.63-.09.34-.33-.11-.38.19.51.24,1.2.3,1.59.68l-.06-.09c.32-.32.19.42.54.4-.07,0-.22.15-.17.12a3.67,3.67,0,0,0,1.22.56l-.12,0c.12.2.43.37.6.54.12,0,.22,0,.24-.12.25.88,1.32.55,1.55,1.31-.06,0-.2,0-.15,0l.49.26c.06-.14,0-.11,0-.28a.46.46,0,0,1,.38.1c-.25-.08-.14.19-.11.32,0,0,.08-.07.1-.11.06.38.22-.2.42.18l-.07,0c.14.06.31.07.42.18,0,.17-.17,0-.26.07.18.12.54,0,.6.27-.11,0-.21-.1-.32-.13a.53.53,0,0,0,.22.38h0l.26.28-.05-.09c.46-.14.5.28.94.32-.42,0-.13.07-.25.17,0,.09.14.22.08.22.22,0,.18.25.49.26,0,0,.15.11,0,.18.21.11,0-.09.06-.13.38.1.54.65,1.07.81s.53.18.87.4c.07.13-.16,0-.16,0a1.38,1.38,0,0,0,.46.38s0,0,0,.1.15,0,.3.17a.54.54,0,0,1-.2,0c.17.11.36.19.53.31,0,.06-.14,0-.21-.06a2.39,2.39,0,0,0,.58.34l-.1-.1c.07,0,0,.06,0,0s-.21-.19-.2-.22l.12.08c0-.19-.46-.36-.69-.55H70l-.3-.12c0-.07,0-.15.11-.07-.12-.19-.17-.09-.26-.26s0,0,0,0l-.18-.1c.05,0,0-.1.12,0-.22-.31-.52-.31-.54-.5l0,0c-.42-.3-.12,0-.5-.09v-.41l-.12.07s-.1-.12-.06-.15c-.2-.06,0,.07-.15.06-.11-.27-.58-.4-.48-.62-.14,0,.14.22-.12.11.1-.24-.27-.16-.38-.4.14-.06.27.14.16-.11-.25.1-.31-.33-.49-.42-.13.15-.38-.21-.68-.36.06,0-.4-.49-.59-.76l0,0c-.18.14-.4-.09-.61-.2a.25.25,0,0,1,.3-.1l-.17-.14a.33.33,0,0,1-.29,0l.16-.11c-.23-.18-.58-.2-.8-.53-.12.13-.06.57-.46.44,0-.08.14-.23.25-.2s-.15,0-.17-.08l.22,0c-.09-.16-.15.06-.25,0,.09-.12,0-.15.06-.22s.06.11.14.1a.62.62,0,0,1-.19-.42c0,.08-.11.16-.21.11s0-.21-.06-.37c-.12,0-.2-.16-.34,0-.07-.06,0-.15,0-.22-.17,0-.57-.4-.58-.1l0,0h0c-.53-.11-.74-.72-1.18-.93l0-.07c-.28-.1-.54-.34-.82-.32a.24.24,0,0,1,0-.31c-.22-.08-.29,0-.47-.32.27,0,0-.16.25,0-.19-.23-.16-.38-.55-.36.21-.13,0-.36-.17-.38l.07.25a1.25,1.25,0,0,1-.34-.25l.23-.21c-.27-.66-1.23-.08-1.24-.87-.25.09.17.31-.09.45-.2-.19-.17-.73-.24-.79-.21-.36-.55.2-.8-.13a.38.38,0,0,1-.45.34c-.21-.19,0-.6.18-.58s.07.08,0,.11.22,0,.2-.13l-.09.08c0-.18-.36-.38-.19-.49-.23,0-.17.11-.08.25-.2-.34-.44-.33-.69-.61,0,.08,0,.23-.06.2-.37-.41-.32.06-.65-.08-.07-.26.3-.33-.09-.4-.12-.22.13-.29.26-.33-.4,0-.44-.46-.57-.6h.19a.46.46,0,0,1-.26-.1l0,.26c-.07-.09-.14-.13-.08-.22-.18.08-.15.39-.44.46-.05-.17-.42-.1-.29-.4.3.32.13-.31.47-.16a.29.29,0,0,1-.22-.14.07.07,0,0,1,.08,0c-.19-.47-.35.21-.7,0,.14-.13.1-.35,0-.35.14.09-.09.3-.3.34-.15-.26-.3-.06-.42-.15l.11.14c-.15.13-.25,0-.44,0,.06-.13.2,0,.17-.08-.34.17-.22-.54-.59-.51-.05-.17.17-.3.11-.44-.4,0-.18-.39-.58-.39,0,.26,0,.22-.32.31l.58.12-.5.14c.15.08.39,0,.46.12-.25.09-.21,0-.24.27,0-.44-.51,0-.62-.39l.32-.53c-.22-.43-.79-.08-1.17-.46l.09.17c-.18.18-.3-.13-.5-.13.12-.17.06-.28.06-.43-.07.14-.33-.19-.57.14l-.08-.35c-.32-.3-.7.27-1,0,.21-.13.11-.34.43-.35-.12-.07-.21-.16-.28,0,0-.14-.46.06-.48-.17-.09.05-.21.22-.33.13a.14.14,0,0,1,0-.08c0,.08-.27,0-.25.25-.09-.72-1.07-.49-1.16-1.1a7.14,7.14,0,0,1-.89-.29s0-.08.08,0c-.25-.32-.44.37-.73,0-.06-.36.27,0,.2-.2.22-.56-.49-.15-.59-.59h.07c-.1-.27-.57,0-.87-.23a.27.27,0,0,0,0-.08,2.08,2.08,0,0,1-1.16,0c.2-.15.2,0,.24-.27-.16,0-.12.34-.43.27,0-.15-.19-.33-.11-.56l.27.11c0-.34-.35-.15-.47-.26l.08-.11c-.43-.14-.57.16-1-.06v.11c-.38.19-.12-.26-.46-.15l.07-.33a4.9,4.9,0,0,1-1,0,2.58,2.58,0,0,1,.9-.15c-.15-.07-.53-.21-.68-.11.07,0,.19,0,.23,0a1,1,0,0,1-.9,0c.3-.54-.74-.52-.78-1-.65,0-1.07-.54-1.73-.76,0,.51-.2-.07-.34.38-.16,0-.22-.07-.22-.1l-.35-.44c0-.17.18,0,.21-.14-.32-.17-.06-.24-.24-.44,0,.17-.2.17-.37,0l.19.3c-.56,0-.26-.52-.81-.48l.2-.07c-.27,0-.89-.36-1.26-.1,0-.06,0-.2.08-.19-.56-.25-1.43-.11-1.8-.48l.08-.08c-.12,0-.26.12-.35,0s.08-.08,0-.11a.64.64,0,0,1-.48,0l.17-.06c-.52-.33-1,0-1.46-.15.1-.28-.31-.54-.53-.65l0,0a8.6,8.6,0,0,0-1.87-.22c-.29-.4-1.26-.52-1.83-.87.08.08-.08.19-.2.18s-.45,0-.35-.17l.05,0c0-.26-.36-.3-.59-.36l-.13.28c-.49-.59-1.65-.29-1.88-.75-.17,0-.35,0-.52,0l.05-.14A5.57,5.57,0,0,0,21.13,52l.13-.08c-.28-.08-.47.31-.74.25l0-.23A3.94,3.94,0,0,0,19,51.58a.14.14,0,0,1,.13-.07c-.24,0-.89-.33-.87,0,0-.17-.51-.13-.8-.12l.07-.12a.86.86,0,0,1-.62.11c-.07,0,0-.11.05,0-.23-.12-.22.06-.51-.07l.13-.05a.43.43,0,0,0-.41,0c-.17,0-.49-.15-.5-.26a.38.38,0,0,1-.36,0s0-.06.08-.06c-.42-.18-.68,0-1-.17a.1.1,0,0,0,0-.08l.6.13c0-.1-.26-.17,0-.27a2.08,2.08,0,0,1-.93,0l0,0h0a.28.28,0,0,0-.18,0,.81.81,0,0,0-.22-.07c0-.09-.31-.1-.45-.13s-.19.05,0,.17c0,0,0,0,.12,0h.05l.36.06a.49.49,0,0,1-.39,0,1.77,1.77,0,0,1-.24.12c-.16-.18-.51-.32-.55-.42a4.24,4.24,0,0,0-1.32,0c-.12,0-.13-.07-.17-.11a.66.66,0,0,0,.2,0c-.25,0-.72-.12-.8,0-.3-.11.19-.07-.24-.13l.07,0c-.81-.3-1.41.06-2.29-.3l.1,0c-1-.23-2.18-.29-3.21-.52a1.24,1.24,0,0,0-.52,0l-.06-.07-.31,0a12.63,12.63,0,0,0-1.32-.19l.07,0a3.32,3.32,0,0,1-.6-.09.2.2,0,0,1-.14,0v0l-.5,0c-.38-.06.07-.07-.49-.13a1.81,1.81,0,0,0-.51,0c.08,0,.21,0,.21,0H.5s-.19.06.27.17H1.1l.1.05-.27,0a1.23,1.23,0,0,0,.36,0,.44.44,0,0,0,.13,0h.32s-.15,0,.06.07S1.67,49,1.91,49a.65.65,0,0,0,.29.07s0,0-.09,0c.16,0,.43,0,.51,0s.55.07.52.14a2.11,2.11,0,0,1,.44,0c-.28,0,.55.09.47.18a7.7,7.7,0,0,1,1.08.07.13.13,0,0,1-.09,0,1.6,1.6,0,0,1,.37.12c0-.08.35,0,.52-.07.23.13-.16.08-.09.17,0-.07.43,0,.35-.06.18.08.16.05.24.15.05-.11.18,0,.34,0s.05.12.35.14C7.26,50,7,50,7,50Zm7,1.21h0l-.15,0Zm.58.13-.25-.06s0-.08.08-.06S14.49,51.3,14.57,51.35Zm-1.08-1c.1,0,.12,0,.13,0l-.16,0h0Z"/><path class="cls-1" d="M13.29,50.46h0l.06,0,0,0Z"/><path class="cls-1" d="M62.57,72.55h0s0,0,0,0Z"/><polygon class="cls-1" points="22.44 53.82 22.45 53.78 22.39 53.8 22.44 53.82"/><path class="cls-1" d="M64.79,75.08a.13.13,0,0,0,0,.06A.18.18,0,0,0,64.79,75.08Z"/><path class="cls-1" d="M65.9,76l.13.17A.92.92,0,0,0,65.9,76Z"/><path class="cls-1" d="M66.74,76.67l.05,0h0Z"/><path class="cls-1" d="M52.16,67.34h0C52,67.32,52.07,67.34,52.16,67.34Z"/><path class="cls-1" d="M56.89,69.49a.74.74,0,0,1-.21,0C56.75,69.57,56.8,69.61,56.89,69.49Z"/><polygon class="cls-1" points="47.05 64.73 47.05 64.73 47.02 64.71 47.05 64.73"/><path class="cls-1" d="M56.48,69.37a.24.24,0,0,0,.2.13S56.57,69.37,56.48,69.37Z"/><polygon class="cls-1" points="70.49 79.56 70.53 79.6 70.54 79.6 70.49 79.56"/><path class="cls-1" d="M70.54,79.6l0,0Z"/><path class="cls-1" d="M70.7,79.69l-.11-.06Z"/><path class="cls-1" d="M69.36,78.66l0,0Z"/><path class="cls-1" d="M69,78.4c.08.07.16.22.29.29h0C69.23,78.67,69.12,78.42,69,78.4Z"/><path class="cls-1" d="M67.92,76.82l.26.28c0-.08,0-.19.09-.09C68,76.58,68.28,77.16,67.92,76.82Z"/><path class="cls-1" d="M67.1,76c.16.11.05-.06.08-.08C67.05,75.89,67,75.89,67.1,76Z"/><path class="cls-1" d="M60.61,70.83l.15-.17C60.62,70.59,60.71,70.73,60.61,70.83Z"/><polygon class="cls-1" points="58.63 70.91 58.67 71.11 58.85 70.97 58.63 70.91"/><polygon class="cls-1" points="58.81 68.98 58.89 69 58.63 68.92 58.81 68.98"/><path class="cls-1" d="M46.77,61.84l-.1.29C46.79,62.13,47,61.83,46.77,61.84Z"/><path class="cls-1" d="M41.19,59.52c0-.15-.13-.3-.28-.22C41,59.37,41.11,59.52,41.19,59.52Z"/><polygon class="cls-1" points="24.37 52.9 24.51 52.87 24.27 52.86 24.37 52.9"/><path class="cls-1" d="M144.85,50.3c.08,0,0,0-.17,0l-.15,0Z"/><path class="cls-1" d="M143.46,50.23c-.24,0-.52.09-.36.14s.3,0,.55-.11.37,0,.33,0,.32,0,.43,0a4.38,4.38,0,0,0-1,0C143.37,50.26,143.45,50.24,143.46,50.23Z"/><path class="cls-1" d="M123.27,49.7l.13,0A.28.28,0,0,0,123.27,49.7Z"/><path class="cls-1" d="M110.76,49.33c.09,0,.13,0,.14-.07S110.74,49.3,110.76,49.33Z"/><path class="cls-1" d="M108.63,48.93l.12,0S108.66,48.91,108.63,48.93Z"/><path class="cls-1" d="M123.27,49.7l-.33-.09C122.91,49.69,123.11,49.67,123.27,49.7Z"/><path class="cls-1" d="M140.68,50.45l.18,0h-.17Z"/><path class="cls-1" d="M128.79,49.62h.1l.08-.08Z"/><path class="cls-1" d="M133,49.71c-.1,0-.13.15-.17.21a.35.35,0,0,1,.21-.1A.21.21,0,0,0,133,49.71Z"/><path class="cls-1" d="M139.73,50.1h0Z"/><path class="cls-1" d="M125.76,49.5a.2.2,0,0,0,0-.08S125.74,49.47,125.76,49.5Z"/><path class="cls-1" d="M7.35,49.35h0S7.31,49.35,7.35,49.35Z"/><path class="cls-1" d="M2.44,49.09h.07v0Z"/><path class="cls-1" d="M104.72,48.5h0C104.84,48.47,104.78,48.48,104.72,48.5Z"/><path class="cls-1" d="M68.82,48.74c.41.19-.66.24,0,.46C68.71,49.11,69.33,48.86,68.82,48.74Z"/><path class="cls-1" d="M140.57,50.44h0Z"/><path class="cls-1" d="M68.77,49.2h0l.06,0Z"/><path class="cls-1" d="M95.71,48.61a.38.38,0,0,0,.09.13S95.78,48.67,95.71,48.61Z"/><path class="cls-1" d="M102.42,49.06l-.17,0A.41.41,0,0,0,102.42,49.06Z"/><path class="cls-1" d="M92.22,49c-.09,0-.12-.06-.24,0l0,0A.19.19,0,0,1,92.22,49Z"/><path class="cls-1" d="M88.59,49l.07,0h.12Z"/><path class="cls-1" d="M18.37,49.57a.68.68,0,0,1-.17-.08C18.26,49.55,17.72,49.56,18.37,49.57Z"/><path class="cls-1" d="M140.67,50.4a.19.19,0,0,1-.1,0h.12S140.7,50.41,140.67,50.4Z"/><path class="cls-1" d="M92.06,51.22l-.58,0A3.3,3.3,0,0,0,92.06,51.22Z"/><path class="cls-1" d="M44.39,50.07l-.14,0A.3.3,0,0,0,44.39,50.07Z"/><path class="cls-1" d="M89.77,51.17a.85.85,0,0,0-.32-.2l-.07.07Z"/><path class="cls-1" d="M18.2,49.49Z"/><path class="cls-1" d="M14.4,49.58c.55,0,.26-.08.38-.13.66,0,.3.08.53.13.4,0,.72-.1,1-.09,0,0,.09,0,0,0,.43-.07,1.28,0,1.79-.07l.06,0c-.08-.06-.09-.11-.08-.15.25,0,.46-.06.55,0a.49.49,0,0,0-.23,0l.26,0c.23.11-.35,0-.36.11a11.36,11.36,0,0,1,1.48-.07c.08.1-.9,0-.39.12l-.59-.05c.45.17-.37,0,.05.16.79,0,.88,0,1.66,0,.18-.06-.06-.09.12-.15,1.11-.09.87.3,1.69.16a1.25,1.25,0,0,1,.88-.13l-.2.13c.76,0,.44-.18,1.23-.08-.14.06-.6,0-.48.06.51.11.36-.07.76-.07l.08.13c.81,0,1.7-.08,2.6-.09-.05,0-.21.08,0,.12a26.9,26.9,0,0,1,3.5.18l.42-.12c.1,0,.18.06.08.08.42.06,0-.08.22-.12s.32.08.17.11a11.39,11.39,0,0,1,2.92,0l-.15,0c.61.06.7-.27,1.26-.14l-.11,0a27.6,27.6,0,0,1,3.83.21c.2-.21,1.32.13,1.41-.18a8.49,8.49,0,0,0,1.61.35c.29,0,.43-.2.79-.22v.17l.49-.17.25.21.33,0c-.13,0-.28-.08-.26-.13a2.16,2.16,0,0,1,1.28.23l1.23-.13c0,.08-.23.1-.4.14.66-.17.12.19.72,0-.08-.05,0-.11.06-.15a4.53,4.53,0,0,0,1.49.1l-.1.12c.91,0,1.92,0,2.94,0-.36-.07-.28-.29,0-.31l.12.2c.2-.12-.31-.08.09-.23.38,0,.25.24,0,.3l.47-.06c0,.06-.09.09-.11.17.19-.12.8.22,1.07,0l0,.06c1,0,1.48,0,2.32,0,0-.18.34-.13.59-.28a16.51,16.51,0,0,0,2,.23c.51-.09.15-.16.38-.27,0,.17.78.17.39.29a17.85,17.85,0,0,0,2.25-.15c-.12-.07-.25-.11-.18-.17s.46.09.43.17l0,0c1.25-.26,2.89.59,3.89.22l0,0,1-.19c.47,0-.29.14.06.26,1.12-.3,1.77.08,2.69-.12.71.59,2.53,0,3.49.39l0-.14c.25-.14.3.08.48.12,0-.11-.27-.13-.11-.21a43.7,43.7,0,0,1,6.51.48c.79.06.45-.78,1.45-.39L80.2,51c1.6-.31,3.26.09,4.83-.18-.1.07-.1.16-.25.15.32.23,1.22.05,1.22-.14.25,0,.06.17.21.26.33.15.83-.26,1,0,0,0-.09.07-.15.08.22-.1,1,.06.8-.21.58.14,1.12-.1,1.59.07.3-.29,1,.17,1.1-.26,0,.44,1,.38,1.4.18-.13.13.32.15.17.33.42,0,.81-.07.74-.31.77.57,1.57-.41,2,.3,1.26-.23,2.42-.38,3.55-.48,0,.47-1.24,0-1.2.52A9.16,9.16,0,0,1,100,50.8c.27.07-.16.21-.25.28,1.07-.18,2.07.06,3-.19,0,0-.11.1-.2.13.19,0,.43.07.41-.14l-.18.06c-.3-.32.75-.65.79-.81-.33.61.94.16.42.93.13,0,.28-.14.26-.28.18,0,.24.12.05.28.67-.11.44-.34,1-.33,0,.1-.13.14-.19.26a1.43,1.43,0,0,1,1.13-.31c0,.06,0,.14-.12.14.88,0,1.51-.52,2.48-.33-.29.44.33.15.37.52l.53-.11-.21-.18c.46,0,.86-.26,1.25-.14l-.34.15.86-.07-.48-.14c.46-.19-.05-.47.56-.36-.12,0,.46,0,.69.22h0a1.05,1.05,0,0,1,.8-.14c.09.11-.07.4,0,.47.23-.3,1.07-.08,1.36-.4a.28.28,0,0,0-.07.3l.19-.24c.21.08.24.12.2.26.64,0-.2-.44.56-.25-.06,0,0,.06-.16.09.76.1,1.47-.15,2.17,0,.2.34-.61.08-.38.37a21.82,21.82,0,0,1,3.06-.33l-.18,0c.14-.46.72.22,1.22,0-.12,0-.16.24-.13.19a11,11,0,0,0,2.38-.25l-.13.11a13.57,13.57,0,0,0,1.46.1c.12-.11.37-.09.22-.24,1.3.57,2.5-.3,3.66.15-.14,0-.34.09-.22.09l1-.1c-.07-.15-.12-.09-.33-.21a1.29,1.29,0,0,1,.65-.16c-.45.1,0,.25.19.33,0,0,0-.1,0-.15.52.27.09-.3.79-.11l0,.07a2.9,2.9,0,0,1,.79-.11c.12.16-.28.07-.3.21.4,0,.79-.31,1.15-.15-.17.05-.41.05-.58.09a1.39,1.39,0,0,0,.73.17h0l.67.08-.17-.05c.51-.39,1-.08,1.7-.32-.66.22-.11.13-.16.29.17,0,.43.08.36.13.32-.13.53.08,1-.1,0,0,.34,0,.27.11.41,0-.1-.07-.07-.13.64-.16,1.5.15,2.42-.06s.94-.2,1.68-.25c.25,0-.21.12-.21.12a4.86,4.86,0,0,0,1.08,0c-.07,0,0,.05.12.08.3,0,.2-.1.6-.06-.07,0-.16.07-.3.11.35,0,.71-.09,1.08-.11.09,0-.23.06-.36.09a10.33,10.33,0,0,0,1.21-.11l-.27,0c.15,0,.08,0,0,.06-.36.05-.52,0-.54,0h.27a6.57,6.57,0,0,0-1.59,0l.22-.12-.54.1c-.12,0-.19-.1.07-.12-.38-.07-.34,0-.66,0,0,0,0,0,0,0l-.37,0c.07,0-.06-.1.17-.08-.67-.1-1.08.09-1.33,0h.06c-.92,0-.09.11-.79.25L137,50l-.09.12c-.1,0-.28,0-.25-.07-.35.09.06.06-.15.14-.45-.13-1.26.05-1.36-.18-.17.11.44.09,0,.16-.14-.25-.57,0-1-.08.13-.14.53-.06.11-.19-.25.23-.81-.07-1.17,0,0,.2-.77.07-1.36.13a16,16,0,0,0-1.66-.24v0c-.11.23-.67.18-1.09.22,0-.14.09-.2.32-.26h-.39a.76.76,0,0,1-.47.14l.1-.18a6.76,6.76,0,0,1-1.71.05c0,.19.53.51-.18.63,0-.1,0-.27.14-.31a.59.59,0,0,1-.34,0l.28-.16c-.3-.08-.16.13-.4.11,0-.14-.18-.1-.14-.21s.21.06.3,0a1.59,1.59,0,0,1-.71-.24c0,.08,0,.19-.2.21-.52,0-.18-.18-.48-.26-.13.1-.46,0-.47.2-.15,0-.18-.11-.23-.17-.27.1-1.26,0-1,.26h0c-.88.22-1.83-.16-2.7-.07V49.6a7.2,7.2,0,0,0-1.53.22c-.15,0-.36-.16-.3-.26a1.71,1.71,0,0,1-1,0c.4-.15-.14-.14.41-.11-.52-.08-.63-.23-1.19,0,.19-.23-.39-.3-.63-.24l.36.17a3.26,3.26,0,0,1-.77,0l.14-.3c-1.06-.4-1.92.61-2.72,0-.28.22.58.17.33.42-.49,0-1-.51-1.15-.52-.66-.19-.62.46-1.32.33.09.11.17.42-.35.53-.49-.05-.6-.5-.29-.59.12,0,.18,0,.17.07.16,0,.36-.09.17-.22l-.06.12c-.24-.12-.91-.12-.75-.31-.37.1-.16.19.11.25-.62-.18-1,0-1.62-.15.1.07.2.21.09.21-.94-.16-.41.22-1,.27-.36-.19.13-.44-.51-.3-.39-.13-.08-.32.07-.41-.58.22-1.09-.17-1.42-.22l.3-.1a1.41,1.41,0,0,1-.49.05l.18.25c-.18-.05-.34-.05-.33-.15-.19.15.14.4-.23.62-.24-.13-.74.12-.82-.2.76.12-.08-.33.56-.37a.92.92,0,0,1-.46,0s0-.06.08-.08c-.73-.3-.34.36-1.09.35.1-.19-.17-.36-.3-.32.31,0,.15.31-.13.45-.49-.15-.53.1-.78.08l.29.07c-.1.19-.35.16-.68.21,0-.14.3-.09.18-.16-.37.33-.84-.34-1.36-.13-.24-.12,0-.34-.23-.43-.59.24-.63-.26-1.25-.06.17.25.21.19-.23.42l1-.16-.65.35c.31,0,.65-.15.83-.1-.31.2-.28.13-.14.34-.41-.37-.82.21-1.3,0l0-.62c-.73-.27-1.3.31-2.24.15L97,49c-.13.24-.59,0-.89.13,0-.2-.16-.28-.29-.4,0,.15-.69,0-.78.38l-.42-.26c-.76-.11-.87.57-1.6.5.22-.22-.11-.36.38-.51-.24,0-.46,0-.46.09-.15-.12-.68.27-.91.08-.1.09-.13.29-.41.28a.11.11,0,0,1,0-.1c0,.1-.43.13-.19.35-.75-.61-2.1,0-2.75-.48-.53.06-1.17.12-1.66.14,0-.06,0-.1.1-.08-.67-.17-.42.53-1.18.34-.38-.3.41-.16.17-.27-.1-.6-.92.08-1.43-.27l.13,0c-.39-.2-1,.22-1.59.18a.09.09,0,0,0,0-.09,4.91,4.91,0,0,1-1.88.47c.19-.22.28-.12.17-.34-.28,0,.07.36-.48.42-.17-.12-.57-.23-.62-.47h.52c-.26-.31-.67,0-.94,0l0-.13c-.79,0-.8.37-1.66.35l.09.1c-.47.32-.39-.19-.86,0l-.13-.33a11.07,11.07,0,0,1-1.64.37,6.93,6.93,0,0,1,1.37-.5,2.89,2.89,0,0,0-1.2.18c.12,0,.28-.11.4-.06a2.49,2.49,0,0,1-1.48.37c.12-.62-1.58-.16-2-.64a20.34,20.34,0,0,1-3.38-.05c.44.45-.36,0-.29.48-.29,0-.4,0-.43,0l-.88-.28c-.21-.14.28-.1.25-.21-.64,0-.27-.19-.69-.32.09.17-.22.24-.58.18l.51.21c-.9.24-.77-.38-1.67-.14l.28-.15c-.46.09-1.7,0-2.15.37-.09-.06-.19-.18,0-.21-1.1,0-2.46.38-3.31.16l.08-.1c-.2,0-.36.19-.61.09,0,0,.08-.11,0-.11a2,2,0,0,1-.82.12l.24-.12a10.49,10.49,0,0,0-2.56.35c0-.29-.84-.39-1.26-.43v0a24.55,24.55,0,0,0-3.29.35c-.71-.3-2.43-.12-3.59-.28.18,0,0,.21-.24.23s-.75.19-.7,0h.09c-.2-.23-.76-.17-1.19-.17L46.6,49c-1.14-.44-3,.16-3.61-.23-.27.08-.61.08-.89.15l0-.15a17.59,17.59,0,0,0-2.08,0l.19-.1c-.53,0-.68.42-1.17.43l-.14-.22a14.33,14.33,0,0,0-2.78,0s0-.09.19-.1c-.44,0-1.69-.12-1.53.15,0-.18-1,0-1.46.06l.08-.13a2.26,2.26,0,0,1-1,.25c-.14,0-.12-.1.07-.06-.47-.07-.37.11-.93,0l.21-.07a1.27,1.27,0,0,0-.71.12,1.71,1.71,0,0,1-1-.14.88.88,0,0,1-.61.12s.07-.06.12-.08c-.8-.07-1.19.13-1.74,0,0,0-.05-.05-.1-.06h1.11c0-.1-.52-.12-.11-.26a6.36,6.36,0,0,1-1.62.2l-.07,0h.06a1.66,1.66,0,0,0-.32,0l-.42,0c-.05-.08-.59,0-.84,0,0,.11-.32.09,0,.18,0,0,0,0,.22,0h.73a1.45,1.45,0,0,1-.7,0l-.36.17c-.35-.15-1-.22-1.12-.31a12.4,12.4,0,0,0-2.34.22A.48.48,0,0,1,21.6,49,2.43,2.43,0,0,0,22,49a6.41,6.41,0,0,0-1.42.14C20,49,20.84,49,20.07,49l.1,0c-1.51-.16-2.46.28-4.14.06l.19,0c-1.91-.08-3.95.06-5.84-.05a4.29,4.29,0,0,0-.92.06L9.34,49l-.56.07c-.8,0-1.38-.13-2.39,0l.13,0c-.36,0-1.14,0-1.08,0a.62.62,0,0,1-.26,0v0l-.89,0c-.69,0,.11-.08-.9-.08a7.08,7.08,0,0,0-.92.06,1.55,1.55,0,0,1,.39,0H2.51c-.06,0-.33.08.51.14l.59,0,.19,0H3.3a3.61,3.61,0,0,0,.66,0l.24,0,.58-.05c.07,0-.26,0,.13.06s-.26-.05.18-.06a1.78,1.78,0,0,0,.53,0s0,0-.15,0c.29,0,.77,0,.92,0s1,0,1,.08a6.29,6.29,0,0,1,.78-.05c-.49.09,1,0,.87.13.37-.08,1.32,0,2-.05a.41.41,0,0,1-.16,0c.36,0,.46,0,.69.07a4.14,4.14,0,0,1,.92-.14c.44.1-.27.1-.13.18,0-.07.77,0,.62-.11a1.32,1.32,0,0,1,.47.11c.06-.12.31,0,.59-.08.49.07.13.11.67.09C14.88,49.55,14.4,49.58,14.4,49.58Zm12.83,0h0Zm1.08,0h-.47s0-.08.11-.08C27.89,49.54,28.15,49.56,28.31,49.6ZM26,48.83c.17,0,.23,0,.25,0H26A.1.1,0,0,1,26,48.83Z"/><path class="cls-1" d="M25.73,49h-.07l.1,0,.06,0Z"/><path class="cls-1" d="M123.42,49.74h0l0,0Z"/><polygon class="cls-1" points="43.19 50.13 43.19 50.09 43.09 50.12 43.19 50.13"/><path class="cls-1" d="M129.35,50.47a.19.19,0,0,0,.08,0Z"/><path class="cls-1" d="M131.92,50.49l.36,0A2.15,2.15,0,0,0,131.92,50.49Z"/><path class="cls-1" d="M133.89,50.54l0-.06h0Z"/><path class="cls-1" d="M102.54,51h-.08C102.28,51.09,102.4,51.07,102.54,51Z"/><path class="cls-1" d="M111.87,50.38a1.94,1.94,0,0,1-.3.13C111.74,50.53,111.87,50.54,111.87,50.38Z"/><polygon class="cls-1" points="92.12 51.23 92.12 51.22 92.06 51.22 92.12 51.23"/><path class="cls-1" d="M111.14,50.51a.7.7,0,0,0,.43,0A.89.89,0,0,0,111.14,50.51Z"/><path class="cls-1" d="M142.43,50.4h0Z"/><path class="cls-1" d="M142.54,50.39h0Z"/><path class="cls-1" d="M142.87,50.36l-.22,0A.75.75,0,0,0,142.87,50.36Z"/><path class="cls-1" d="M139.82,50.43l0,0S139.82,50.45,139.82,50.43Z"/><path class="cls-1" d="M139,50.46a4.26,4.26,0,0,0,.74,0l0,0C139.67,50.52,139.21,50.4,139,50.46Z"/><path class="cls-1" d="M135.72,49.94l.67.05c-.12-.05-.27-.12,0-.12C135.59,49.7,136.6,50,135.72,49.94Z"/><path class="cls-1" d="M133.67,49.81c.35,0,0-.09,0-.12C133.45,49.74,133.4,49.75,133.67,49.81Z"/><path class="cls-1" d="M118.78,49.47l0-.23C118.54,49.27,118.81,49.33,118.78,49.47Z"/><polygon class="cls-1" points="115.92 50.63 116.19 50.77 116.31 50.56 115.92 50.63"/><polygon class="cls-1" points="114.25 48.91 114.37 48.88 113.91 48.96 114.25 48.91"/><path class="cls-1" d="M89.24,48.77l.08.31C89.51,49,89.55,48.68,89.24,48.77Z"/><path class="cls-1" d="M78.44,49.09a.52.52,0,0,0-.61-.09A4,4,0,0,0,78.44,49.09Z"/><polygon class="cls-1" points="46.06 48.73 46.28 48.66 45.87 48.72 46.06 48.73"/></g></g></svg>